<svg width="580" height="400" xmlns="http://www.w3.org/2000/svg">
 <!-- Created with Method Draw - http://github.com/duopixel/Method-Draw/ -->

 <g>
  <title>background</title>
  <rect fill="#fff" id="canvas_background" height="402" width="582" y="-1" x="-1"/>
  <g display="none" overflow="visible" y="0" x="0" height="100%" width="100%" id="canvasGrid">
   <rect fill="url(#gridpattern)" stroke-width="0" y="0" x="0" height="100%" width="100%"/>
  </g>
 </g>
 <g>
  <title>Layer 1</title>

  <path id="svg_64" d="m320.888672,26.497128l0,64.000004l-64,0l0,-64.000004l64,0" fill="#989AA7"/>
  <path id="svg_98" d="m-113,155.163849l-4.449997,4.399994l-0.550003,-0.549988l4.450012,-4.400009l0.399994,0.350006l0.149994,0.199997m-5,-5.050003l-4.399994,4.5l-0.550003,-0.550003l4.5,-4.399994l0.449997,0.449997" fill="#2A2A2A"/>
  <g id="svg_280">
   <path id="svg_209" d="m439.578949,249.700821l0.299988,-0.25l1.850037,-1.649994q4.699951,-3.399963 10.449951,-2.499985q3.5,0.549973 6.150024,2.499985l-0.049988,0.149994q-0.700012,4.550018 -4.400024,7.300018l-0.200012,0.149994q-1.299988,0.949966 -2.75,1.499985l-0.049988,0q-5.149963,0 -8.700012,-3.649979l-1.899963,-2.350006l-0.700012,-1.200012" fill="#F0CFB3"/>
   <path id="svg_210" d="m439.578949,249.700821l0.700012,1.200012l1.899963,2.350006q3.550049,3.649979 8.700012,3.649979l0.049988,0q-2.649963,1.049988 -5.75,0.549988q-2.799988,-0.449982 -4.899963,-1.999985q-1.450012,-1 -2.600037,-2.549988l-0.149963,-0.25l1.099976,-1.800018l0.950012,-1.149994" fill="#FFDEC2"/>
   <path id="svg_211" d="m461.428925,251.050827l1.200012,2q1.900024,3.849991 1.200012,8.249985q-0.900024,5.75 -5.599976,9.149994q-4.700012,3.399994 -10.400024,2.5q-5.75,-0.899994 -9.150024,-5.600006q-3.449951,-4.699982 -2.549988,-10.399994q0.400024,-2.349991 1.400024,-4.299973l0.149963,0.25q1.150024,1.549988 2.600037,2.549988q2.099976,1.550003 4.899963,1.999985q3.100037,0.5 5.75,-0.549988q5.150024,0 8.75,-3.649979l1.75,-2.200012" fill="#198EBF"/>
   <path id="svg_212" d="m461.428925,251.050827l-1.75,2.200012q-3.599976,3.649979 -8.75,3.649979q1.450012,-0.550018 2.75,-1.499985l0.200012,-0.149994q3.700012,-2.75 4.400024,-7.300018l0.049988,-0.149994q1.700012,1.299988 3,3.100006l0.099976,0.149994" fill="#10719A"/>
   <path id="svg_213" d="m439.728973,235.551056q0.799988,-1.84996 1.949951,-1.84996q1.150024,0 1.950012,1.84996q0.799988,1.84996 0.799988,4.449905q0,2.649948 -0.799988,4.44989q-0.799988,1.849976 -1.950012,1.849976q-1.149963,0 -1.949951,-1.849976q-0.800049,-1.799942 -0.800049,-4.44989q0,-2.599945 0.800049,-4.449905m17.449951,15.599777q4.350037,-3.600006 -0.849976,-8.549942q-3.75,-3.599899 -10.299988,-7.999817l5,3.199936l0.049988,-0.049988l12,7.54982l-0.950012,1.549973l-1.399963,1.700012q-1.650024,1.649994 -3.550049,2.600006" fill="#3D3D3D"/>
   <path id="svg_214" d="m457.178925,251.150833q-2.849976,1.5 -6.349976,1.5q-5.799988,0 -9.900024,-4.100006q-4.149963,-4.099976 -4.149963,-9.899826q0,-4.699905 2.700012,-8.249817l0.949951,0.599991l5.600037,3.599899q6.549988,4.399918 10.299988,7.999817q5.200012,4.949936 0.849976,8.549942m-17.449951,-15.599777q-0.800049,1.84996 -0.800049,4.449905q0,2.649948 0.800049,4.44989q0.799988,1.849976 1.949951,1.849976q1.150024,0 1.950012,-1.849976q0.799988,-1.799942 0.799988,-4.44989q0,-2.599945 -0.799988,-4.449905q-0.799988,-1.84996 -1.950012,-1.84996q-1.149963,0 -1.949951,1.84996" fill="#FFDEC2"/>
   <path id="svg_215" d="m448.178925,265.050812l-0.049988,-0.100006q-1.450012,-2.100006 -1.450012,-5.100006q0,-2.949982 1.450012,-5.09996q1.450012,-2.100006 3.450012,-2.100006q2.049988,0 3.5,2.100006q1.400024,2.149979 1.400024,5.09996q0,3 -1.400024,5.100006l-0.349976,0.5q-0.150024,-1.100006 -0.950012,-1.899994q-1,-1 -2.350037,-1q-1.399963,0 -2.399963,1q-0.650024,0.649994 -0.850037,1.5" fill="#1680AD"/>
   <path id="svg_216" d="m448.178925,265.050812q0.200012,-0.850006 0.850037,-1.5q1,-1 2.399963,-1q1.350037,0 2.350037,1q0.799988,0.799988 0.950012,1.899994l0,0.450012q0,1.399994 -0.950012,2.350006q-1,1 -2.350037,1q-1.399963,0 -2.399963,-1q-0.950012,-0.950012 -0.950012,-2.350006l0.099976,-0.850006" fill="#FFDEC2"/>
   <path id="svg_217" d="m443.978973,276.1008q-2.200012,-0.399994 -2.200012,-2.099976q0,-1.75 2.149963,-2.950012q2.150024,-1.25 5.200012,-1.25q3.049988,0 5.200012,1.25q2.200012,1.200012 2.200012,2.950012q0,1.699982 -2.150024,2.049988l-5.149963,0.350006l-5.25,-0.300018" fill="#494949"/>
   <path id="svg_218" d="m433.428925,234.701065l-0.699951,-0.449966q-2.850037,-1.549988 -4.5,-3.299942q-1.700012,-1.749954 -0.100037,-2.749939q1.549988,-0.999969 4.150024,0.399994l2.299988,1.249969q-0.400024,0.699997 -0.900024,3.049942l-0.25,1.799942" fill="#D9AD00"/>
   <path id="svg_219" d="m434.578949,229.851181q0.950012,-1.649963 3.200012,-4.749893q2.299988,-3.099915 5.149963,-4.349884l3.850037,-1.649979l0.75,-0.299988q2.649963,-0.899963 6.25,-0.699997q2.549988,0.100006 4.950012,1.299988q2.349976,1.199966 1.949951,1.799957q-7.849976,-2.699921 -11.949951,-1.499969q-4.050049,1.249969 -6.900024,3.749908q-2.799988,2.499954 -4.5,4.799911l-3.650024,4.649887q0.5,-2.349945 0.900024,-3.049942" fill="#FFD52E"/>
   <path id="svg_220" d="m460.678925,221.201385q2.600037,1.59996 4.450012,4.299911l1.5,2.499939q2.049988,3.799911 2,7.54982q0,4.499893 -0.700012,7.099854l-0.149963,0.499985l-1.200012,3.849945l-0.400024,1.099976q-4.599976,-0.25 -9.849976,-3.649963q-5.25,-3.399918 -14.450012,-5.899857q-4.700012,-1.349976 -8.450012,-3.84993l0.25,-1.799942l3.650024,-4.649887q1.700012,-2.299957 4.5,-4.799911q2.849976,-2.499939 6.900024,-3.749908q4.099976,-1.199951 11.949951,1.499969" fill="#FFCC00"/>
  </g>
  <g id="svg_281">
   <path id="svg_170" d="m307.38266,272.268646l-2.949982,0.350006l-2.899994,-0.399994q-1.150024,-0.350006 -1.150024,-2.049988q0,-1.700012 1.200012,-2.950012q1.200012,-1.200012 2.899994,-1.200012q1.700012,0 2.950012,1.200012q1.199982,1.25 1.199982,2.950012q0,1.699982 -1.25,2.099976" fill="#494949"/>
   <path id="svg_171" d="m317.082672,272.268646l-2.950012,0.350006l-2.899994,-0.399994q-1.149994,-0.350006 -1.149994,-2.049988q0,-1.700012 1.200012,-2.950012q1.199982,-1.200012 2.899994,-1.200012q1.699982,0 2.949982,1.200012q1.200012,1.25 1.200012,2.950012q0,1.699982 -1.25,2.099976" fill="#494949"/>
   <path id="svg_172" d="m319.13266,262.118652l-0.049988,-0.049988q-1.049988,-2.100006 -1.049988,-5.050018q0,-3 1.049988,-5.149994q1.100006,-2.100006 2.600006,-2.100006q1.5,0 2.600006,2.100006q1,2.149994 1,5.149994q0,2.650024 -0.800018,4.600006q-0.199982,-0.75 -0.699982,-1.350006q-0.800018,-0.949982 -1.950012,-0.949982q-1.149994,0 -1.950012,0.949982q-0.649994,0.800018 -0.75,1.850006" fill="#1680AD"/>
   <path id="svg_173" d="m319.13266,262.118652q0.100006,-1.049988 0.75,-1.850006q0.800018,-0.949982 1.950012,-0.949982q1.149994,0 1.950012,0.949982q0.5,0.600006 0.699982,1.350006l0.050018,0.149994l0.049988,0.900024q0,1.399994 -0.799988,2.349976q-0.800018,1 -1.950012,1q-1.149994,0 -1.950012,-1q-0.799988,-0.949982 -0.799988,-2.349976l0,-0.450012l0.049988,-0.100006" fill="#FFDEC2"/>
   <path id="svg_174" d="m294.38266,262.118652l-0.049988,-0.049988q-1.049988,-2.100006 -1.049988,-5.050018q0,-3 1.049988,-5.149994q1.100006,-2.100006 2.600006,-2.100006q1.5,0 2.600006,2.100006q1.049988,2.149994 1.049988,5.149994q0,2.650024 -0.850006,4.600006l-0.699982,-1.350006q-0.800018,-0.949982 -1.950012,-0.949982q-1.100006,0 -1.950012,0.949982q-0.649994,0.800018 -0.75,1.850006" fill="#1680AD"/>
   <path id="svg_175" d="m294.38266,262.118652q0.100006,-1.049988 0.75,-1.850006q0.850006,-0.949982 1.950012,-0.949982q1.149994,0 1.950012,0.949982l0.699982,1.350006l0.050018,0.149994l0.099976,0.900024q0,1.399994 -0.849976,2.349976q-0.800018,1 -1.950012,1q-1.100006,0 -1.950012,-1q-0.799988,-0.949982 -0.799988,-2.349976l0,-0.450012l0.049988,-0.100006" fill="#FFDEC2"/>
   <path id="svg_176" d="m321.582672,248.118652q2.649994,4.300018 1.850006,9.450012q-0.899994,5.75 -5.600006,9.149994q-4.700012,3.399994 -10.399994,2.5q-5.75,-0.899994 -9.149994,-5.600006q-3.450012,-4.699982 -2.550018,-10.399994q0.399994,-2.350006 1.399994,-4.299988l0.800018,-1.350006l1.299988,0.75q4.300018,2.149994 10.800018,2.199982q6.5,0 8.899994,-1.199982l2.649994,-1.200012m-11.049988,12.600006q-0.050018,2.5 0.899994,4.899994q0.399994,1.100006 2,1.100006q1.549988,0.049988 2.25,-1.950012q0.850006,-2.649994 0.299988,-5.549988q-2.649994,1.649994 -5.449982,1.5m-7.75,4.049988q0.649994,2 2.199982,1.950012q1.600006,0 2,-1.100006q0.950012,-2.399994 0.899994,-4.899994q-2.799988,0.149994 -5.399994,-1.5q-0.600006,2.899994 0.300018,5.549988" fill="#198EBF"/>
   <path id="svg_177" d="m298.032684,247.418671l1.449982,-1.700012q0.850006,-0.899994 1.850006,-1.649994q4.700012,-3.399994 10.450012,-2.5q3.5,0.549988 6.149994,2.5q1.699982,1.299988 3,3.100006l0.299988,0.449982l0.350006,0.5q-4.299988,-0.75 -6.149994,-2.199982l-9.950012,-0.600006q-1.899994,1.949982 -7.449982,2.100006" fill="#F0CFB3"/>
   <path id="svg_178" d="m298.032684,247.418671q5.549988,-0.150024 7.449982,-2.100006l9.950012,0.600006q1.850006,1.449982 6.149994,2.199982l-2.649994,1.200012q-2.399994,1.199982 -8.899994,1.199982q-6.5,-0.049988 -10.800018,-2.199982l-1.299988,-0.75l0.100006,-0.149994m12.5,13.299988q2.799988,0.149994 5.449982,-1.5q0.550018,2.899994 -0.299988,5.549988q-0.700012,2 -2.25,1.950012q-1.600006,0 -2,-1.100006q-0.950012,-2.399994 -0.899994,-4.899994m-7.75,4.049988q-0.900024,-2.649994 -0.300018,-5.549988q2.600006,1.649994 5.399994,1.5q0.050018,2.5 -0.899994,4.899994q-0.399994,1.100006 -2,1.100006q-1.549988,0.049988 -2.199982,-1.950012" fill="#10719A"/>
   <path id="svg_179" d="m312.13266,214.018646l0.25,0.050018q2.350006,0 4.25,1.350006l2.400024,0.049988q1.399994,0.899994 1.5,1.850006q7.099976,6.449982 7.349976,16.399994q0,3.75 -1.099976,6.299988q-2.700012,6 -6.350006,6.450012q-5.649994,-12.5 -8.300018,-32.450012m-13.349976,32.450012q-4.300018,-1.049988 -6.950012,-7.299988q-0.600006,-1.950012 -0.5,-5.450012q0.200012,-9.950012 7.350006,-16.399994q0.049988,-0.950012 1.5,-1.850006l2.350006,-0.049988q1.899994,-1.350006 4.299988,-1.350006l0.200012,-0.050018q-2.650024,19.950012 -8.25,32.450012" fill="#FFCC00"/>
   <path id="svg_180" d="m298.782684,246.468658q5.599976,-12.5 8.25,-32.450012q0.849976,-1.299988 2.549988,-1.299988q1.75,0 2.549988,1.299988q2.650024,19.950012 8.300018,32.450012q-5.450012,1.399994 -10.850006,1.450012q-5.399994,-0.050018 -10.799988,-1.450012" fill="#FFD52E"/>
  </g>
  <g id="svg_282">
   <path id="svg_155" d="m181.300262,266.918884q0.649994,-0.800018 1.449982,-1.450012l0,-0.049988l0.149994,-0.150024q1.5,-1.25 3.450012,-2.099976q5.299988,-2.400024 10.75,-0.300018q1.200012,0.450012 2.200012,1.100006l1.349976,0.899994l0.050018,0.050018l1.549988,1.399994l0.050018,0.699982l-0.200012,2l-0.149994,0.800018q-0.550018,1.149994 -2.350006,2.699982l-1.25,0.800018l-2.100006,1.199982q-2.149994,0.900024 -4.699982,0.900024q-2.450012,0 -4.5,-0.850006q-2.100006,-0.850006 -3.850006,-2.600006l-1.450012,-1.700012l-0.049988,-0.25q-0.399994,-1.399994 -0.399994,-3l0,-0.099976" fill="#F0CFB3"/>
   <path id="svg_156" d="m181.300262,266.918884l0,0.099976q0,1.600006 0.399994,3l0.049988,0.25q-0.75,-1.099976 -1.199982,-2.299988l0.099976,-0.25l0.300018,-0.350006l0.049988,-0.100006l0.050018,-0.099976l0.25,-0.25m20.949982,-0.600006l0.149994,0.149994l0.100006,0.100006l0.149994,0.149994l0.25,0.299988l-0.799988,2l0.200012,-2l-0.050018,-0.699982" fill="#10719A"/>
   <path id="svg_157" d="m181.750244,270.26886l1.450012,1.700012q1.75,1.75 3.850006,2.600006q2.049988,0.850006 4.5,0.850006q2.549988,0 4.699982,-0.900024l2.100006,-1.199982l1.25,-0.800018q1.799988,-1.549988 2.350006,-2.699982q-0.700012,2.600006 -2.75,4.649994q-1.450012,1.450012 -3.25,2.25q-1.899994,0.799988 -4.149994,0.799988q-2.150024,0 -4.050018,-0.75q-1.850006,-0.75 -3.399994,-2.299988q-1.850006,-1.899994 -2.600006,-4.200012" fill="#FFDEC2"/>
   <path id="svg_158" d="m181.750244,270.26886q0.75,2.300018 2.600006,4.200012q1.549988,1.549988 3.399994,2.299988q1.899994,0.75 4.050018,0.75q2.25,0 4.149994,-0.799988q1.799988,-0.799988 3.25,-2.25q2.049988,-2.049988 2.75,-4.649994l0.149994,-0.800018l0.799988,-2l0.25,0.300018l0.300018,0.399994l0.399994,0.600006l1,1.949982l0.799988,2.100006q1.200012,4.300018 -0.5,8.600006q-2.099976,5.399994 -7.399994,7.75q-5.299988,2.350006 -10.75,0.299988q-5.399994,-2.099976 -7.75,-7.399994q-1.75,-3.899994 -1.049988,-7.899994q0.25,-1.399994 0.799988,-2.799988l0.850006,-1.900024l0.399994,-0.699982l0.300018,-0.350006q0.449982,1.200012 1.199982,2.299988" fill="#198EBF"/>
   <path id="svg_159" d="m200.35025,246.218872l2.100006,1.799988q4.399994,4.350006 4.399994,10.5q0,2.600006 -0.799988,4.900024q0,-10.400024 -5.700012,-17.200012m-22.200012,17.649994q-0.949982,-2.5 -0.949982,-5.350006q0,-6.149994 4.350006,-10.5q1.149994,-1.199982 2.5,-2.049988q-6.050018,7 -5.900024,17.899994m16.850006,-7.100006q0.899994,-1.949982 2.100006,-1.949982q1.25,0 2.100006,1.949982l0.350006,1q0.5,1.650024 0.5,3.800018q0,2.799988 -0.850006,4.75q-0.850006,2 -2.100006,2q-1.200012,0 -2.100006,-2q-0.850006,-1.950012 -0.850006,-4.75l0,-0.300018q0.050018,-2.599976 0.850006,-4.5m-6.549988,0l0.399994,1q0.5,1.650024 0.5,3.800018q0,2.799988 -0.899994,4.75q-0.850006,2 -2.050018,2q-1.25,0 -2.099976,-2q-0.850006,-1.950012 -0.850006,-4.75l0,-0.300018q0.049988,-2.599976 0.850006,-4.5q0.849976,-1.949982 2.099976,-1.949982q1.200012,0 2.050018,1.949982" fill="#3D3D3D"/>
   <path id="svg_160" d="m188.450256,256.76886q-0.850006,-1.949982 -2.050018,-1.949982q-1.25,0 -2.099976,1.949982q-0.800018,1.900024 -0.850006,4.5l0,0.300018q0,2.799988 0.850006,4.75q0.849976,2 2.099976,2q1.200012,0 2.050018,-2q0.899994,-1.950012 0.899994,-4.75q0,-2.149994 -0.5,-3.800018l-0.399994,-1m17.600006,6.650024q-1.100006,3.049988 -3.600006,5.5q-4.300018,4.349976 -10.450012,4.349976q-6.149994,0 -10.449982,-4.349976q-2.300018,-2.25 -3.400024,-5.050018q-0.149994,-10.899994 5.900024,-17.899994q3.5,-2.299988 7.949982,-2.299988q4.550018,0 8.100006,2.399994l0.25,0.149994q5.700012,6.799988 5.700012,17.200012m-11.050018,-6.650024q-0.799988,1.900024 -0.850006,4.5l0,0.300018q0,2.799988 0.850006,4.75q0.899994,2 2.100006,2q1.25,0 2.100006,-2q0.850006,-1.950012 0.850006,-4.75q0,-2.149994 -0.5,-3.800018l-0.350006,-1q-0.850006,-1.949982 -2.100006,-1.949982q-1.200012,0 -2.100006,1.949982" fill="#FFDEC2"/>
   <path id="svg_161" d="m194.400238,236.068878l0.25,0.049988q2.400024,0 4.400024,1.350006l2.399994,0.100006q1.449982,0.899994 1.549988,1.899994q7.350006,6.600006 6.800018,20.5q-1.25,-3.049988 -5.600006,-4.200012l-6.300018,-1.5q-2.099976,-7.599976 -3.5,-18.199982m-20.049988,23.149994q-1.149994,-13.149994 6.200012,-19.75q0.049988,-1 1.5,-1.899994l2.449982,-0.100006q2,-1.350006 4.399994,-1.350006l0.200012,-0.049988q-1.350006,10.600006 -3.350006,18.600006l-5.25,1.099976q-3.350006,0.850006 -6.149994,3.450012" fill="#FFCC00"/>
   <path id="svg_162" d="m189.10025,236.068878q0.850006,-1.350006 2.649994,-1.350006q1.800018,0 2.649994,1.350006q1.400024,10.600006 3.5,18.199982l-12.149994,0.400024q2,-8 3.350006,-18.600006" fill="#FFD52E"/>
   <path id="svg_163" d="m209.800262,259.968872q1.599976,3.799988 -4.650024,5.200012q2.200012,-3.25 -1.799988,-5.650024q-4.049988,-2.399994 -11.100006,-2.549988q-7.049988,-0.200012 -11.199982,2.450012q-4.200012,2.649994 -2,6.349976q-6.350006,-2.799988 -4.700012,-6.549988q2.799988,-2.600006 6.149994,-3.450012l5.25,-1.099976l12.149994,-0.400024l6.300018,1.5q4.350006,1.150024 5.600006,4.200012" fill="#D9AD00"/>
   <path id="svg_164" d="m201.650238,282.668884l0,-0.050018q-1.099976,-2.100006 -1.099976,-5.100006q0,-2.949982 1.099976,-5.099976q1.050018,-2.100006 2.550018,-2.100006q1.549988,0 2.600006,2.100006q1.049988,2.149994 1.049988,5.099976q0,2.700012 -0.850006,4.650024l-0.699982,-1.350006q-0.800018,-0.950012 -1.900024,-0.950012q-1.149994,0 -2,0.950012q-0.599976,0.799988 -0.75,1.850006" fill="#1680AD"/>
   <path id="svg_165" d="m201.650238,282.668884q0.150024,-1.050018 0.75,-1.850006q0.850006,-0.950012 2,-0.950012q1.100006,0 1.900024,0.950012l0.699982,1.350006l0.050018,0.149994l0.099976,0.899994q0,1.350006 -0.849976,2.350006q-0.800018,1 -1.900024,1q-1.149994,0 -2,-1q-0.799988,-1 -0.799988,-2.350006l0.049988,-0.5l0,-0.049988" fill="#FFDEC2"/>
   <path id="svg_166" d="m176.900238,282.668884l-0.049988,-0.050018q-1.049988,-2.100006 -1.049988,-5.049988q0,-3 1.049988,-5.100006q1.100006,-2.149994 2.600006,-2.149994q1.5,0 2.600006,2.149994q1,2.100006 1,5.100006q0,2.649994 -0.800018,4.600006l-0.699982,-1.300018q-0.800018,-1 -1.950012,-1q-1.149994,0 -1.950012,1q-0.649994,0.75 -0.75,1.800018" fill="#1680AD"/>
   <path id="svg_167" d="m176.900238,282.668884q0.100006,-1.050018 0.75,-1.800018q0.800018,-1 1.950012,-1q1.149994,0 1.950012,1l0.699982,1.300018l0.050018,0.199982l0.049988,0.850006q0,1.399994 -0.799988,2.350006q-0.800018,1 -1.950012,1q-1.149994,0 -1.950012,-1q-0.799988,-0.950012 -0.799988,-2.350006l0,-0.450012l0.049988,-0.099976" fill="#FFDEC2"/>
   <path id="svg_168" d="m190.150238,292.818878l-2.949982,0.350006l-2.899994,-0.400024q-1.200012,-0.349976 -1.200012,-2.049988q0,-1.700012 1.200012,-2.950012q1.25,-1.199982 2.949982,-1.199982q1.649994,0 2.899994,1.199982q1.200012,1.25 1.200012,2.950012q0,1.700012 -1.200012,2.100006" fill="#494949"/>
   <path id="svg_169" d="m194.000244,292.76886q-1.199982,-0.349976 -1.199982,-2.049988q0,-1.700012 1.199982,-2.950012q1.25,-1.199982 2.899994,-1.199982q1.700012,0 2.950012,1.199982q1.200012,1.25 1.200012,2.950012q0,1.700012 -1.200012,2.100006l-3,0.350006l-2.850006,-0.400024" fill="#494949"/>
  </g>
  <g id="svg_283">
   <path id="svg_143" d="m105.20089,273.052246l0.099998,-0.149963q1.300003,-1.800049 3,-3.100037l0.050003,0.150024q0.699997,4.549988 4.399994,7.299988l0.200005,0.150024q1.299995,0.949951 2.75,1.5q-5.150002,0 -8.75,-3.650024q-1.049995,-1 -1.75,-2.200012" fill="#10719A"/>
   <path id="svg_144" d="m108.300888,269.802246q2.650002,-1.950012 6.150002,-2.5q5.75,-0.899963 10.450005,2.5l1.849991,1.650024l0.300003,0.25l-0.699997,1.200012l-1.900002,2.349976q-3.549995,3.650024 -8.700005,3.650024l-0.049995,0q-1.450005,-0.550049 -2.75,-1.5l-0.200005,-0.150024q-3.699997,-2.75 -4.399994,-7.299988l-0.050003,-0.150024" fill="#F0CFB3"/>
   <path id="svg_145" d="m129.100891,274.652283q1,1.949951 1.399994,4.299988q0.900009,5.700012 -2.549995,10.399963q-3.400002,4.700012 -9.150002,5.600037q-5.699997,0.899963 -10.399994,-2.5q-4.700005,-3.400024 -5.600006,-9.150024q-0.699997,-4.399963 1.199997,-8.25l1.200005,-2q0.700005,1.200012 1.75,2.200012q3.599998,3.650024 8.75,3.650024q2.650002,1.049988 5.75,0.549988q2.799995,-0.450012 4.900002,-2q1.449997,-1 2.600006,-2.549988l0.149994,-0.25" fill="#198EBF"/>
   <path id="svg_146" d="m129.100891,274.652283l-0.149994,0.25q-1.150009,1.549988 -2.600006,2.549988q-2.100006,1.549988 -4.900002,2q-3.099998,0.5 -5.75,-0.549988l0.049995,0q5.150009,0 8.700005,-3.650024l1.900002,-2.349976l0.699997,-1.200012l0.949997,1.149963l1.100006,1.800049" fill="#FFDEC2"/>
   <path id="svg_147" d="m120.600891,256.602234l5.599998,-3.59996l0.950005,-0.600006q2.699997,3.549988 2.699997,8.250015q0,5.799988 -4.150002,9.899963q-4.099998,4.100037 -9.900002,4.100037q-3.5,0 -6.349998,-1.5q-4.349998,-3.600037 0.849998,-8.550049q3.75,-3.599976 10.300003,-8m6.300003,0.950012q-0.800003,-1.849991 -1.950005,-1.849991q-1.150002,0 -1.950005,1.849991q-0.799995,1.850037 -0.799995,4.450012q0,2.650024 0.799995,4.450012q0.800003,1.849976 1.950005,1.849976q1.150002,0 1.950005,-1.849976q0.799995,-1.799988 0.799995,-4.450012q0,-2.599976 -0.799995,-4.450012" fill="#FFDEC2"/>
   <path id="svg_148" d="m126.900894,257.552246q0.799995,1.850037 0.799995,4.450012q0,2.650024 -0.799995,4.450012q-0.800003,1.849976 -1.950005,1.849976q-1.150002,0 -1.950005,-1.849976q-0.799995,-1.799988 -0.799995,-4.450012q0,-2.599976 0.799995,-4.450012q0.800003,-1.849991 1.950005,-1.849991q1.150002,0 1.950005,1.849991m-17.450005,15.600037q-1.900002,-0.950012 -3.549995,-2.600037l-1.400009,-1.700012l-0.949997,-1.549988l12,-7.549988l0.050003,0.049988l5,-3.200012q-6.550003,4.400024 -10.300003,8q-5.199997,4.950012 -0.849998,8.550049" fill="#3D3D3D"/>
   <path id="svg_149" d="m111.900894,287.452271l-0.350006,-0.5q-1.399994,-2.100037 -1.399994,-5.100037q0,-2.949951 1.399994,-5.099976q1.449997,-2.099976 3.5,-2.099976q2,0 3.449997,2.099976q1.450005,2.150024 1.450005,5.099976q0,3 -1.450005,5.100037l-0.049995,0.099976l-0.849998,-1.5q-1,-1 -2.400002,-1q-1.349998,0 -2.349998,1q-0.800003,0.799988 -0.949997,1.900024" fill="#1680AD"/>
   <path id="svg_150" d="m111.900894,287.452271q0.149994,-1.100037 0.949997,-1.900024q1,-1 2.349998,-1q1.400002,0 2.400002,1l0.849998,1.5l0.099998,0.850037q0,1.399963 -0.949997,2.349976q-1,1 -2.400002,1q-1.349998,0 -2.349998,-1q-0.949997,-0.950012 -0.949997,-2.349976l0,-0.450012" fill="#FFDEC2"/>
   <path id="svg_151" d="m122.650894,298.102234l-5.25,0.300049l-5.150009,-0.350037q-2.149994,-0.349976 -2.149994,-2.049988q0,-1.75 2.199997,-2.950012q2.150002,-1.25 5.199997,-1.25q3.050003,0 5.200005,1.25q2.150002,1.200012 2.150002,2.950012q0,1.700012 -2.199997,2.099976" fill="#494949"/>
   <path id="svg_152" d="m133.200897,256.702271q-3.75,2.5 -8.450012,3.849976q-9.199997,2.5 -14.449997,5.900024q-5.25,3.399963 -9.849998,3.649963l-0.400002,-1.099976l-1.199997,-3.849976l-0.150002,-0.5q-0.700005,-2.600037 -0.700005,-7.100037q-0.049995,-3.749985 2,-7.549973l1.5,-2.5q1.850006,-2.700012 4.450005,-4.300018q7.849998,-2.699982 11.950005,-1.5q4.049995,1.25 6.899994,3.75q2.800003,2.5 4.5,4.800018l3.650009,4.649994l0.25,1.800003" fill="#FFCC00"/>
   <path id="svg_153" d="m132.950897,254.902267l-3.650009,-4.649994q-1.699997,-2.300018 -4.5,-4.800018q-2.849998,-2.5 -6.899994,-3.75q-4.100006,-1.199982 -11.950005,1.5q-0.400002,-0.600006 1.950005,-1.799988q2.399994,-1.200012 4.949997,-1.300018q3.599998,-0.199982 6.25,0.700012l0.75,0.299988l3.849998,1.650024q2.849998,1.25 5.150002,4.349976l3.199997,4.75l0.900009,3.050018" fill="#FFD52E"/>
   <path id="svg_154" d="m132.950897,254.902267l-0.900009,-3.050018l2.300003,-1.25q2.600006,-1.399994 4.149994,-0.399994q1.600006,1 -0.100006,2.75q-1.649994,1.75 -4.499985,3.300003l-0.699997,0.450012l-0.25,-1.800003" fill="#D9AD00"/>
  </g>
  <g id="svg_284">
   <path id="svg_41" d="m90.63913,33.913895l-0.100006,0.100006q-0.649994,0.75 -0.899994,1.549988q-0.350006,0.75 -0.350006,1.650009l0,0.099991q0,0.900009 0.350006,1.75l0.899994,1.450012q1,0.899994 2.300003,1.199997l0.800003,0.050003l3.449997,0l0,11.199997l-3.350006,0q-1.849991,0 -3.199997,1.25q-1.25,1.399994 -1.25,3.199997q0,1.949997 1.25,3.199997q1.350006,1.400009 3.199997,1.400009l3.350006,0l0,11.299988l-3.350006,0q-1.849991,0 -3.199997,1.300003q-1.25,1.350006 -1.25,3.199997l0,0.100006l0.100006,0.899994q0.149994,1.300003 1.149994,2.300003q1.350006,1.350006 3.199997,1.350006l2.450012,0l0,-0.100006l0.899994,0l0,10.050003l-3,0l1.199997,-0.899994q1.350006,-1.25 1.350006,-3.200012q0,-1.799988 -1.350006,-3.199997q-1.300003,-1.25 -3.199997,-1.25l-7.25,0q-1.850006,0 -3.199997,1.25q-1.25,1.400009 -1.25,3.199997l0,0.200012q0,1.799988 1.25,3.199997l1,0.699997l-6.550003,0l1,-0.699997q1.350006,-1.400009 1.350006,-3.199997q0,-1.950012 -1.350006,-3.200012q-1.25,-1.399994 -3.199997,-1.399994l-7.25,0q-1.799995,0 -3.199997,1.399994q-1.25,1.25 -1.25,3.200012q0,1.799988 1.25,3.199997q0.449997,0.449997 1,0.699997l-6.550003,0l0.650002,-0.350006l0.349998,-0.349991q1.400002,-1.400009 1.400002,-3.199997q0,-1.950012 -1.400002,-3.200012l-0.349998,-0.349991q-1.150002,-1.050003 -2.800003,-1.050003l-7.299995,0q-1.800003,0 -3.150002,1.399994q-1.300003,1.25 -1.300003,3.200012q0,1.799988 1.300003,3.199997l1,0.699997l-6.299999,0l0.999996,-0.800003l0.200005,-0.099991q1.199997,-1.25 1.199997,-3l0,-0.100006q0,-1.850006 -1.400002,-3.199997q-1.149994,-1.199997 -2.999996,-1.300003l-0.149998,0l-1.400002,0l0,-2.25q0.75,0.550003 1.549999,0.800003l1.300003,0.199997l7.349995,0q1.800003,0 3.200005,-1.399994q0.899994,-0.900009 1.149994,-2.150009l0.100006,-0.849991l0,-0.200012l0,-0.049988l-0.100006,-0.850006q-0.25,-1.25 -1.149994,-2.300003q-0.75,-0.599991 -1.450005,-0.899994l-1.75,-0.350006l-7.349995,0l-1.300003,0.150009l-1.549999,0.849991l0,-1.649994l1.400002,0l0.149998,0q1.75,-0.100006 2.999996,-1.350006q1.400002,-1.300003 1.400002,-3.199997q0,-1.850006 -1.400002,-3.199997q-1.249996,-1.300003 -2.999996,-1.300003l-0.149998,0l-1.400002,0l0,-2.949997l1.549999,0.849991l1.300003,0.200012l7.349995,0q1.800003,0 3.200005,-1.400009q0.899994,-0.899994 1.149994,-2.199997l0.100006,-0.800003l0,-0.199997l0,-0.100006l-0.100006,-0.799988q-0.25,-1.300003 -1.149994,-2.300003q-0.75,-0.650009 -1.450005,-0.900009l-1.75,-0.349991l-7.349995,0l-1.300003,0.149994l-1.549999,0.850006l0,-1.5l1.400002,0l0.149998,0q1.75,-0.050003 2.999996,-1.350006q1.400002,-1.300003 1.400002,-3.199997q0,-1.850006 -1.400002,-3.199997q-1.249996,-1.300003 -2.999996,-1.300003l-0.149998,0l-1.400002,0l0,-2.449997q0.75,0.550003 1.549999,0.800003l1.300003,0.199997l7.349995,0q1.800003,0 3.200005,-1.25q1.25,-1.400009 1.25,-3.199997l0,-0.100006l-0.200005,-1.399994q-0.349998,-1 -1.049995,-1.700012l-0.100006,-0.099991l-0.299995,-0.300003l4.949997,0l-0.400002,0.399994q-1.25,1.25 -1.25,3.200012q0,1.799988 1.25,3.199997q1.400002,1.25 3.200005,1.25l7.25,0q1.949997,0 3.199997,-1.25q1.349998,-1.400009 1.349998,-3.199997q0,-1.950012 -1.349998,-3.200012l-0.25,-0.399994l4.800003,0l-0.200005,0.199997q-1.25,1.25 -1.25,3.199997q0,1.800003 1.25,3.200012q1.400002,1.25 3.200005,1.25l7.25,0q1.949997,0 3.199997,-1.25q1.349991,-1.400009 1.349991,-3.200012q0,-1.949997 -1.349991,-3.199997l-0.100006,-0.199997l5.100006,0m4.649994,30.550003q-1.300003,-1.300003 -3.199997,-1.300003l-7.25,0q-1.850006,0 -3.199997,1.300003q-1.25,1.349991 -1.25,3.199997l0,0.100006l0.050003,0.899994q0.199997,1.300003 1.199997,2.300003q1.349991,1.349991 3.199997,1.349991l7.25,0q1.899994,0 3.199997,-1.349991l0.900009,-1.300003q0.449997,-0.899994 0.449997,-2q0,-1.850006 -1.350006,-3.199997m-3.199997,-12.699997q1.899994,0 3.199997,-1.400009l0.699997,-0.800003q0.650009,-1 0.650009,-2.399994q0,-1.350006 -0.75,-2.449997l-0.600006,-0.75q-1.300003,-1.25 -3.199997,-1.25l-7.25,0q-1.850006,0 -3.199997,1.25q-1.25,1.399994 -1.25,3.199997q0,1.949997 1.25,3.199997q1.349991,1.400009 3.199997,1.400009l7.25,0m-16.899994,1.199997q-1.800003,0 -3.200005,1.25q-1.25,1.399994 -1.25,3.199997q0,1.949997 1.25,3.199997q1.400002,1.400009 3.200005,1.400009l7.25,0q1.949997,0 3.199997,-1.400009q1.349991,-1.25 1.349991,-3.199997q0,-1.800003 -1.349991,-3.199997q-1.25,-1.25 -3.199997,-1.25l-7.25,0m1.899994,-2.199997q1.350006,-1.300003 1.350006,-3.200012q0,-1.849991 -1.350006,-3.199997q-1.25,-1.300003 -3.199997,-1.300003l-7.25,0q-1.799995,0 -3.199997,1.300003q-1.25,1.350006 -1.25,3.199997q0,1.900009 1.25,3.200012q1.400002,1.349991 3.199997,1.349991l7.25,0q1.949997,0 3.199997,-1.349991m-19.899994,2.199997q-1.800003,0 -3.200005,1.25q-1.25,1.399994 -1.25,3.199997q0,1.949997 1.25,3.199997q1.400002,1.400009 3.200005,1.400009l7.25,0q1.949997,0 3.199997,-1.400009q1.349998,-1.25 1.349998,-3.199997q0,-1.800003 -1.349998,-3.199997q-1.25,-1.25 -3.199997,-1.25l-7.25,0m-1.450005,-0.850006q1.650002,0 2.800003,-1l0.349998,-0.349991q1.400002,-1.300003 1.400002,-3.200012q0,-1.849991 -1.400002,-3.199997l-0.349998,-0.300003q-1.150002,-1 -2.800003,-1l-7.299995,0q-1.800003,0 -3.150002,1.300003q-1.300003,1.350006 -1.300003,3.199997q0,1.900009 1.300003,3.200012q1.349998,1.349991 3.150002,1.349991l7.299995,0m19.450005,21.300003q-1.300003,0 -2.350006,0.649994q-0.449997,0.25 -0.849998,0.650009q-1.25,1.349991 -1.25,3.199997q0,1.899994 1.25,3.199997q1.400002,1.350006 3.200005,1.350006l7.25,0q1.949997,0 3.199997,-1.350006q1.349991,-1.300003 1.349991,-3.199997q0,-1.850006 -1.349991,-3.199997q-0.350006,-0.400009 -0.800003,-0.650009q-1,-0.649994 -2.399994,-0.649994l-7.25,0m-21.200005,1.300003q-1.25,1.349991 -1.25,3.199997q0,1.899994 1.25,3.199997q1.400002,1.350006 3.200005,1.350006l7.25,0q1.949997,0 3.199997,-1.350006q1.349998,-1.300003 1.349998,-3.199997q0,-1.850006 -1.349998,-3.199997l-0.799995,-0.650009q-1,-0.649994 -2.400002,-0.649994l-7.25,0q-1.300003,0 -2.349998,0.649994l-0.850006,0.650009m4.550003,-10.449997q-1.150002,-1 -2.800003,-1l-7.299995,0q-1.800003,0 -3.150002,1.299988q-1.300003,1.350006 -1.300003,3.200012q0,1.899994 1.300003,3.199997q1.349998,1.349991 3.150002,1.349991l7.299995,0q1.650002,0 2.800003,-1l0.349998,-0.349991q1.400002,-1.300003 1.400002,-3.199997l-0.449997,-1.950012l-0.950005,-1.25l-0.349998,-0.299988m8.099998,-1q-1.799995,0 -3.199997,1.299988q-0.550003,0.650009 -0.800003,1.25q-0.449997,0.950012 -0.449997,1.950012q0,1.899994 1.25,3.199997q1.400002,1.349991 3.199997,1.349991l7.25,0q1.949997,0 3.199997,-1.349991q1.350006,-1.300003 1.350006,-3.199997q0,-1 -0.450012,-1.950012l-0.899994,-1.25q-1.25,-1.299988 -3.199997,-1.299988l-7.25,0" fill="#5C5C5C"/>
   <path id="svg_42" d="m66.63913,63.263901l7.25,0q1.949997,0 3.199997,1.299988l0.899994,1.25q0.450012,0.950012 0.450012,1.950012q0,1.899994 -1.350006,3.199997q-1.25,1.349991 -3.199997,1.349991l-7.25,0q-1.799995,0 -3.199997,-1.349991q-1.25,-1.300003 -1.25,-3.199997q0,-1 0.449997,-1.950012q0.25,-0.599991 0.800003,-1.25q1.400002,-1.299988 3.199997,-1.299988m30.449997,-21.5l-3.449997,0l-0.800003,-0.050003q-1.300003,-0.300003 -2.300003,-1.199997l-0.899994,-1.450012q-0.350006,-0.849991 -0.350006,-1.75l0,-0.099991q0,-0.900009 0.350006,-1.650009q0.25,-0.799988 0.899994,-1.549988l0.100006,-0.100006l6.449997,0l0,7.850006m-11.550003,-7.850006l0.100006,0.199997q1.349991,1.25 1.349991,3.199997q0,1.800003 -1.349991,3.200012q-1.25,1.25 -3.199997,1.25l-7.25,0q-1.800003,0 -3.200005,-1.25q-1.25,-1.400009 -1.25,-3.200012q0,-1.949997 1.25,-3.199997l0.200005,-0.199997l13.349991,0m-18.149994,0l0.25,0.399994q1.349998,1.25 1.349998,3.200012q0,1.799988 -1.349998,3.199997q-1.25,1.25 -3.199997,1.25l-7.25,0q-1.800003,0 -3.200005,-1.25q-1.25,-1.400009 -1.25,-3.199997q0,-1.950012 1.25,-3.200012l0.400002,-0.399994l13,0m-17.949997,0l0.299995,0.300003l0.100006,0.099991q0.699997,0.700012 1.049995,1.700012l0.200005,1.399994l0,0.100006q0,1.799988 -1.25,3.199997q-1.400002,1.25 -3.200005,1.25l-7.349995,0l-1.300003,-0.199997q-0.799999,-0.25 -1.549999,-0.800003l0,-7.050003l13,0m-13,9.5l1.400002,0l0.149998,0q1.75,0 2.999996,1.300003q1.400002,1.349991 1.400002,3.199997q0,1.899994 -1.400002,3.199997q-1.249996,1.300003 -2.999996,1.350006l-0.149998,0l-1.400002,0l0,-9.050003m0,10.550003l1.549999,-0.850006l1.300003,-0.149994l7.349995,0l1.75,0.349991q0.700005,0.25 1.450005,0.900009q0.899994,1 1.149994,2.300003l0.100006,0.799988l0,0.100006l0,0.199997l-0.100006,0.800003q-0.25,1.300003 -1.149994,2.199997q-1.400002,1.400009 -3.200005,1.400009l-7.349995,0l-1.300003,-0.200012l-1.549999,-0.849991l0,-7m0,9.949997l1.400002,0l0.149998,0q1.75,0 2.999996,1.300003q1.400002,1.349991 1.400002,3.199997q0,1.899994 -1.400002,3.199997q-1.249996,1.25 -2.999996,1.350006l-0.149998,0l-1.400002,0l0,-9.050003m0,10.699997l1.549999,-0.849991l1.300003,-0.150009l7.349995,0l1.75,0.350006q0.700005,0.300003 1.450005,0.899994q0.899994,1.050003 1.149994,2.300003l0.100006,0.850006l0,0.049988l0,0.200012l-0.100006,0.849991q-0.25,1.25 -1.149994,2.150009q-1.400002,1.399994 -3.200005,1.399994l-7.349995,0l-1.300003,-0.199997q-0.799999,-0.25 -1.549999,-0.800003l0,-7.050003m0,9.300003l1.400002,0l0.149998,0q1.850002,0.100006 2.999996,1.300003q1.400002,1.349991 1.400002,3.199997l0,0.100006q0,1.75 -1.199997,3l-0.200005,0.099991l-0.999996,0.800003l-3.549999,0l0,-8.5m9.849998,8.5l-1,-0.699997q-1.300003,-1.400009 -1.300003,-3.199997q0,-1.950012 1.300003,-3.200012q1.349998,-1.399994 3.150002,-1.399994l7.299995,0q1.650002,0 2.800003,1.050003l0.349998,0.349991q1.400002,1.25 1.400002,3.200012q0,1.799988 -1.400002,3.199997l-0.349998,0.349991l-0.650002,0.350006l-11.599998,0m18.150002,0q-0.550003,-0.25 -1,-0.699997q-1.25,-1.400009 -1.25,-3.199997q0,-1.950012 1.25,-3.200012q1.400002,-1.399994 3.199997,-1.399994l7.25,0q1.949997,0 3.199997,1.399994q1.350006,1.25 1.350006,3.200012q0,1.799988 -1.350006,3.199997l-1,0.699997l-11.649994,0m18.199997,0l-1,-0.699997q-1.25,-1.400009 -1.25,-3.199997l0,-0.200012q0,-1.799988 1.25,-3.199997q1.349991,-1.25 3.199997,-1.25l7.25,0q1.899994,0 3.199997,1.25q1.350006,1.400009 1.350006,3.199997q0,1.950012 -1.350006,3.200012l-1.199997,0.899994l-11.449997,0m14.449997,-10.050003l-0.899994,0l0,0.100006l-2.450012,0q-1.849991,0 -3.199997,-1.350006q-1,-1 -1.149994,-2.300003l-0.100006,-0.899994l0,-0.100006q0,-1.849991 1.25,-3.199997q1.350006,-1.300003 3.199997,-1.300003l3.350006,0l0,9.050003m0,-20.349991l-3.350006,0q-1.849991,0 -3.199997,-1.400009q-1.25,-1.25 -1.25,-3.199997q0,-1.800003 1.25,-3.199997q1.350006,-1.25 3.199997,-1.25l3.350006,0l0,9.050003m-5,-10.25l-7.25,0q-1.850006,0 -3.199997,-1.400009q-1.25,-1.25 -1.25,-3.199997q0,-1.800003 1.25,-3.199997q1.349991,-1.25 3.199997,-1.25l7.25,0q1.899994,0 3.199997,1.25l0.600006,0.75q0.75,1.099991 0.75,2.449997q0,1.399994 -0.650009,2.399994l-0.699997,0.800003q-1.300003,1.400009 -3.199997,1.400009m3.199997,12.699997q1.350006,1.349991 1.350006,3.199997q0,1.100006 -0.449997,2l-0.900009,1.300003q-1.300003,1.349991 -3.199997,1.349991l-7.25,0q-1.850006,0 -3.199997,-1.349991q-1,-1 -1.199997,-2.300003l-0.050003,-0.899994l0,-0.100006q0,-1.850006 1.25,-3.199997q1.349991,-1.300003 3.199997,-1.300003l7.25,0q1.899994,0 3.199997,1.300003m-18.199997,-13.699997q-1.25,1.349991 -3.199997,1.349991l-7.25,0q-1.799995,0 -3.199997,-1.349991q-1.25,-1.300003 -1.25,-3.200012q0,-1.849991 1.25,-3.199997q1.400002,-1.300003 3.199997,-1.300003l7.25,0q1.949997,0 3.199997,1.300003q1.350006,1.350006 1.350006,3.199997q0,1.900009 -1.350006,3.200012m-1.899994,2.199997l7.25,0q1.949997,0 3.199997,1.25q1.349991,1.399994 1.349991,3.199997q0,1.949997 -1.349991,3.199997q-1.25,1.400009 -3.199997,1.400009l-7.25,0q-1.800003,0 -3.200005,-1.400009q-1.25,-1.25 -1.25,-3.199997q0,-1.800003 1.25,-3.199997q1.400002,-1.25 3.200005,-1.25m-19.450005,-0.850006l-7.299995,0q-1.800003,0 -3.150002,-1.349991q-1.300003,-1.300003 -1.300003,-3.200012q0,-1.849991 1.300003,-3.199997q1.349998,-1.300003 3.150002,-1.300003l7.299995,0q1.650002,0 2.800003,1l0.349998,0.300003q1.400002,1.350006 1.400002,3.199997q0,1.900009 -1.400002,3.200012l-0.349998,0.349991q-1.150002,1 -2.800003,1m1.450005,0.850006l7.25,0q1.949997,0 3.199997,1.25q1.349998,1.399994 1.349998,3.199997q0,1.949997 -1.349998,3.199997q-1.25,1.400009 -3.199997,1.400009l-7.25,0q-1.800003,0 -3.200005,-1.400009q-1.25,-1.25 -1.25,-3.199997q0,-1.800003 1.25,-3.199997q1.400002,-1.25 3.200005,-1.25m1.349998,11.300003l0.349998,0.299988l0.950005,1.25l0.449997,1.950012q0,1.899994 -1.400002,3.199997l-0.349998,0.349991q-1.150002,1 -2.800003,1l-7.299995,0q-1.800003,0 -3.150002,-1.349991q-1.300003,-1.300003 -1.300003,-3.199997q0,-1.850006 1.300003,-3.200012q1.349998,-1.299988 3.150002,-1.299988l7.299995,0q1.650002,0 2.800003,1m-4.550003,10.449997l0.850006,-0.650009q1.049995,-0.649994 2.349998,-0.649994l7.25,0q1.400002,0 2.400002,0.649994l0.799995,0.650009q1.349998,1.349991 1.349998,3.199997q0,1.899994 -1.349998,3.199997q-1.25,1.350006 -3.199997,1.350006l-7.25,0q-1.800003,0 -3.200005,-1.350006q-1.25,-1.300003 -1.25,-3.199997q0,-1.850006 1.25,-3.199997m21.200005,-1.300003l7.25,0q1.399994,0 2.399994,0.649994q0.449997,0.25 0.800003,0.650009q1.349991,1.349991 1.349991,3.199997q0,1.899994 -1.349991,3.199997q-1.25,1.350006 -3.199997,1.350006l-7.25,0q-1.800003,0 -3.200005,-1.350006q-1.25,-1.300003 -1.25,-3.199997q0,-1.850006 1.25,-3.199997q0.400002,-0.400009 0.849998,-0.650009q1.050003,-0.649994 2.350006,-0.649994" fill="#494949"/>
   <path id="svg_43" d="m90.63913,33.913895l-5.100006,0l-13.349991,0l-4.800003,0l-13,0l-4.949997,0l-13,0l0,7.050003l0,2.449997l0,9.050003l0,1.5l0,7l0,2.949997l0,9.050003l0,1.649994l0,7.050003l0,2.25l0,8.5l3.549999,0l6.299999,0l11.599998,0l6.550003,0l11.649994,0l6.550003,0l11.449997,0l3,0l0,-10.050003l0,-9.050003l0,-11.299988l0,-9.050003l0,-11.199997l0,-7.850006l-6.449997,0m8.25,-2.75l0,64l-63.999996,0l0,-64l9.749996,0l0.650002,0l53.599998,0" fill="#2E2E2E"/>
   <path id="svg_44" d="m44.989128,33.913895q-6.699993,0.199997 -6.999996,7.850006l0,0.549988l0,41.800003q0,5.5 3.200001,7.400009q1.549995,0.849991 3.799995,0.899994l-9.699993,0l0,-58.5l9.699993,0m51.200005,7.850006q-0.200012,-6.850006 -5.550003,-7.650009l-0.949997,-0.199997l9.199997,0l0,58.5l-9.5,0q5.800003,-0.149994 6.699997,-6.100006l0.100006,-2.199997l0,-41.800003l0,-0.549988" fill-opacity="0.6" fill="#2E2E2E"/>
  </g>
  <g id="svg_285">
   <path id="svg_105" d="m190.766388,30.96933q7.600006,0.800003 7.899994,10.25l0,0.100006l0,0.549988l0,41.75l-0.100006,2.5l0,0.149994q-1.299988,8.400024 -10,8.400024l-43.849991,0q-3.300003,0 -5.400009,-1.25l-0.099991,0q-4.550003,-2.450012 -4.550003,-9.800018l0,-41.75l0,-0.549988l0,-0.100006q0.350006,-10.699997 10.050003,-10.5l43.849991,0l2.399994,0.25l-0.199982,0m-2,2.399994l-0.25,0l-43.900009,0q-7.050003,0 -7.300003,7.850006l0,0.550003l0,41.749985q0,5.5 3.200012,7.450012q1.649994,0.899994 4.099991,0.899994l43.900009,0l0.25,0l0.899994,0q5.25,-0.549988 6.049988,-6.149994l0.100006,-2.200012l0,-41.749985l0,-0.550003q-0.199982,-6.850006 -5.600006,-7.699997l-0.549988,-0.100006l-0.899994,-0.050003" fill="#AA9D7E"/>
   <path id="svg_106" d="m188.766388,33.369324l0.899994,0.050003l0.549988,0.100006q5.400024,0.849991 5.600006,7.699997l0,0.550003l0,41.749985l-0.100006,2.200012q-0.799988,5.600006 -6.049988,6.149994l-0.899994,0l-0.25,0l-43.900009,0q-2.449997,0 -4.099991,-0.899994q-3.200012,-1.950012 -3.200012,-7.450012l0,-41.749985l0,-0.550003q0.25,-7.850006 7.300003,-7.850006l43.900009,0l0.25,0m0.899994,10.050003l-0.899994,0.900009l-8.149994,8.149994l-0.900024,0.899994l-8.299988,8.300018l-0.399994,0.5l-4.450012,4.349976l-5.699997,5.700012l-0.899994,0.899994l-10.300003,10.25l-0.949997,0.899994l-3,3l3,0l0.949997,0l10.300003,0l0.899994,0l9.600006,0l0.949997,0l8.299988,0l0.900024,0l6.699982,0l-6.699982,-6.649994l-0.900024,-0.899994l-8.299988,-8.350006l-0.949997,-0.899994l-3.350006,-3.399994l4.449997,-4.399994l8.149994,8.149994l0.900024,0.949982l8.149994,8.100006l0.899994,0.950012l1.600006,1.549988l0,-40.5l-1.600006,1.550003m-28.800003,-5.5l-0.899994,0l-10.300003,0l-0.949997,0l-1.900009,0l1.900009,1.900009l0.949997,0.949997l10.300003,10.300003l0.899994,0.949982l5.25,5.200012l-4.5,4.399994l-0.75,-0.75l-0.899994,-0.899994l-10.300003,-10.350006l-0.949997,-0.899994l-6.850006,-6.949997l0,40.599991l6.850006,-6.899994l0.949997,-0.899994l10.300003,-10.300018l0.899994,-0.949982l1.300003,-1.149994l4.399994,-4.5l3.900009,-3.950012l0.949997,-0.899994l8.299988,-8.300003l0.900024,-0.949997l5.699982,-5.650009l-5.699982,0l-0.900024,0l-8.299988,0l-0.949997,0l-9.600006,0" fill="#E0D1AF"/>
   <path id="svg_107" d="m160.866379,37.919327l9.600006,0l0,15.800003l-3.900009,3.950012l-0.449997,-0.450012l-5.25,-5.200012l0,-14.099991m28.800003,5.5l1.600006,-1.550003l0,40.5l-1.600006,-1.549988l0,-37.400009m-0.899994,36.449997l-8.149994,-8.100006l0,-19.299988l8.149994,-8.149994l0,35.549988m-9.050018,-9.049988l-8.149994,-8.149994l-0.149994,-0.150024l0,-0.849976l8.299988,-8.300018l0,17.450012m-12.599991,-3.75l3.350006,3.399994l0,16.799988l-9.600006,0l0,-15.049988l5.699997,-5.700012l0.550003,0.550018m4.300003,4.299988l8.299988,8.350006l0,7.549988l-8.299988,0l0,-15.899994m9.200012,9.25l6.699982,6.649994l-6.699982,0l0,-6.649994m-20.650009,6.649994l-10.300003,0l0,-3.899994l10.300003,-10.25l0,14.149994m-11.25,0l-3,0l3,-3l0,3m22.699997,-49.349991l8.299988,0l0,6.600006l-8.299988,8.300003l0,-14.900009m9.200012,0l5.699982,0l-5.699982,5.650009l0,-5.650009m-18.450012,24.250015l-1.300003,1.149994l0,-2.450012l0.75,0.75l0.550003,0.550018m-2.199997,2.099976l-10.300003,10.300018l0,-24.950012l10.300003,10.350006l0,4.299988m-11.25,11.200012l-6.850006,6.899994l0,-40.599991l6.850006,6.949997l0,26.75m11.25,-24.399994l-10.300003,-10.300003l0,-2.850006l10.300003,0l0,13.150009m-11.25,-11.25l-1.900009,-1.900009l1.900009,0l0,1.900009" fill="#ECE3CE"/>
   <path id="svg_108" d="m148.716385,39.819336l0,-1.900009l0.949997,0l0,2.850006l-0.949997,-0.949997m40.050003,4.5l0.899994,-0.900009l0,37.400009l-0.899994,-0.950012l0,-35.549988m-8.149994,27.449982l-0.900024,-0.949982l0,-17.450012l0.900024,-0.899994l0,19.299988m-10.150009,-1.299988l0.949997,0.899994l0,15.899994l-0.949997,0l0,-16.799988m9.249985,9.25l0.900024,0.899994l0,6.649994l-0.900024,0l0,-7.549988m-18.849991,7.549988l-0.899994,0l0,-14.149994l0.899994,-0.899994l0,15.049988m-11.199997,0l-0.949997,0l0,-3l0.949997,-0.899994l0,3.899994m21.350006,-25.099976l0.399994,-0.5l0,0.849976l-0.399994,-0.349976m-11.050003,-24.250015l0.899994,0l0,14.099991l-0.899994,-0.949982l0,-13.150009m10.5,0l0.949997,0l0,14.900009l-0.949997,0.899994l0,-15.800003m9.249985,0l0.900024,0l0,5.650009l-0.900024,0.949997l0,-6.600006m-18.849991,25.400009l-0.899994,0.949982l0,-4.299988l0.899994,0.899994l0,2.450012m-11.199997,11.25l-0.949997,0.899994l0,-26.75l0.949997,0.899994l0,24.950012" fill="#D7CEB9"/>
   <path id="svg_109" d="m171.566376,62.669342l-4.449997,4.399994l-0.550003,-0.550018l4.450012,-4.349976l0.399994,0.349976l0.149994,0.150024m-5,-5l-4.399994,4.5l-0.550003,-0.550018l4.5,-4.399994l0.449997,0.450012" fill="#C9C0AB"/>
   <path id="svg_110" d="m198.666382,41.21933l0,0.100006l0,0.549988l0,41.800018l-0.049988,2.449982l0,0.200012q-1.300018,8.399994 -10,8.399994l-43.900009,0q-3.25,0 -5.350006,-1.299988l-0.099991,0q-4.600006,-2.450012 -4.600006,-9.75l0,-41.800018l0,-0.549988l0,-0.100006q0.399994,-10.699997 10.050003,-10.5l43.900009,0l2.399994,0.25l-0.200012,0q7.600006,0.850006 7.850006,10.25" fill-opacity="0.301961" fill="#000000"/>
  </g>
  <g id="svg_286">
   <path id="svg_77" d="m413.328705,82.501205q-4.799988,0 -8.150024,3.349976q-3.349976,3.400024 -3.349976,8.200012q0,4.799988 3.349976,8.149994q3.350037,3.399994 8.150024,3.399994q4.799988,0 8.150024,-3.399994q3.399963,-3.350006 3.399963,-8.149994q0,-4.799988 -3.399963,-8.200012q-3.350037,-3.349976 -8.150024,-3.349976m11,0.5q4.599976,4.599976 4.599976,11.049988q0,6.5 -4.599976,11.049988q-4.5,4.550018 -11,4.550018q-6.5,0 -11.049988,-4.550018q-4.549988,-4.549988 -4.549988,-11.049988q0,-6.450012 4.549988,-11.049988q4.549988,-4.5 11.049988,-4.5q6.5,0 11,4.5" fill="#E0D1AF"/>
   <path id="svg_78" d="m413.328705,82.501205q4.799988,0 8.150024,3.349976q3.399963,3.400024 3.399963,8.200012q0,4.799988 -3.399963,8.149994q-3.350037,3.399994 -8.150024,3.399994q-4.799988,0 -8.150024,-3.399994q-3.349976,-3.350006 -3.349976,-8.149994q0,-4.799988 3.349976,-8.200012q3.350037,-3.349976 8.150024,-3.349976" fill="#ECE3CE"/>
   <path id="svg_273" d="m445.328705,126.051193l-64,0l0,-63.999996l64,0l0,63.999996" stroke-linejoin="round" stroke-linecap="round" stroke-opacity="0" stroke="#FF00CC" fill="none"/>
  </g>
  <g id="svg_287">
   <path id="svg_115" d="m516.328918,151.102356q-4.500031,4.550003 -11.000031,4.550003q-6.5,0 -11.049988,-4.550003q-4.549988,-4.550003 -4.549988,-11.050003q0,-6.449997 4.549988,-11.050003q4.549988,-4.500008 11.049988,-4.500008q6.5,0 11.000031,4.500008q4.599976,4.600006 4.599976,11.050003q0,6.5 -4.599976,11.050003m-2.849976,-2.900009q3.399963,-3.349991 3.399963,-8.149994q0,-4.800003 -3.399963,-8.199997q-3.350067,-3.350006 -8.150055,-3.350006q-4.799988,0 -8.150024,3.350006q-3.349976,3.399994 -3.349976,8.199997q0,4.800003 3.349976,8.149994q3.350037,3.400009 8.150024,3.400009q4.799988,0 8.150055,-3.400009" fill="#198EBF"/>
   <path id="svg_116" d="m513.478943,148.202347q-3.350067,3.400009 -8.150055,3.400009q-4.799988,0 -8.150024,-3.400009q-3.349976,-3.349991 -3.349976,-8.149994q0,-4.800003 3.349976,-8.199997q3.350037,-3.350006 8.150024,-3.350006q4.799988,0 8.150055,3.350006q3.399963,3.399994 3.399963,8.199997q0,4.800003 -3.399963,8.149994" fill="#1EA7E1"/>
   <path id="svg_277" d="m537.328857,108.052345l0,64.000008l-63.999969,0l0,-64.000008l63.999969,0" stroke-linejoin="round" stroke-linecap="round" stroke-opacity="0" stroke="#FF00CC" fill="none"/>
  </g>
 </g>
</svg>