<svg width="64" height="64" xmlns="http://www.w3.org/2000/svg">
 <!-- Created with Method Draw - http://github.com/duopixel/Method-Draw/ -->

 <g>
  <title>background</title>
  <rect fill="none" id="canvas_background" height="8.956501" width="8.956501" y="-1" x="-1"/>
  <g display="none" id="canvasGrid">
   <rect fill="url(#gridpattern)" stroke-width="0" y="0" x="0" height="100%" width="100%" id="svg_1"/>
  </g>
 </g>
 <g>
  <title>Layer 1</title>
  <path id="svg_98" d="m-113,155.163849l-4.449997,4.399994l-0.550003,-0.549988l4.450012,-4.400009l0.399994,0.350006l0.149994,0.199997m-5,-5.050003l-4.399994,4.5l-0.550003,-0.550003l4.5,-4.399994l0.449997,0.449997" fill="#2A2A2A"/>
  <g id="svg_285">
   <path id="svg_105" d="m56.098419,0.251051q7.600006,0.800003 7.899994,10.25l0,0.100006l0,0.549989l0,41.750005l-0.100006,2.5l0,0.149994q-1.299988,8.400024 -10,8.400024l-43.849991,0q-3.300003,0 -5.400009,-1.25l-0.099991,0q-4.550003,-2.450012 -4.550003,-9.800018l0,-41.750005l0,-0.549989l0,-0.100006q0.350006,-10.699997 10.050003,-10.5l43.849991,0l2.399994,0.25l-0.199982,0m-2,2.399994l-0.25,0l-43.900009,0q-7.050003,0 -7.300003,7.850006l0,0.550003l0,41.74999q0,5.5 3.200012,7.450012q1.649994,0.899994 4.09999,0.899994l43.90001,0l0.25,0l0.899994,0q5.25,-0.549988 6.049988,-6.149994l0.100006,-2.200012l0,-41.74999l0,-0.550003q-0.199982,-6.850006 -5.600006,-7.699996l-0.549988,-0.100006l-0.899994,-0.050003" fill="#AA9D7E"/>
   <path id="svg_106" d="m54.098419,2.651044l0.899994,0.050003l0.549988,0.100006q5.400024,0.849991 5.600006,7.699997l0,0.550003l0,41.749988l-0.100006,2.200012q-0.799988,5.600006 -6.049988,6.149994l-0.899994,0l-0.25,0l-43.900009,0q-2.449997,0 -4.099991,-0.899994q-3.200011,-1.950012 -3.200011,-7.450012l0,-41.749988l0,-0.550003q0.25,-7.850007 7.300003,-7.850007l43.900008,0l0.25,0m0.899994,10.050004l-0.899994,0.900009l-8.149994,8.149995l-0.900024,0.899994l-8.299988,8.30002l-0.399994,0.5l-4.45001,4.349976l-5.699997,5.700012l-0.899996,0.899994l-10.300002,10.25l-0.949997,0.899994l-3,3l3,0l0.949997,0l10.300002,0l0.899996,0l9.600004,0l0.949997,0l8.299988,0l0.900024,0l6.699982,0l-6.699982,-6.649994l-0.900024,-0.899994l-8.299988,-8.350006l-0.949997,-0.899994l-3.350006,-3.399994l4.449997,-4.399994l8.149994,8.149994l0.900024,0.949982l8.149994,8.100006l0.899994,0.950012l1.600006,1.549988l0,-40.500005l-1.600006,1.550003m-28.800001,-5.5l-0.899996,0l-10.300002,0l-0.949997,0l-1.90001,0l1.90001,1.900009l0.949997,0.949997l10.300002,10.300006l0.899996,0.949982l5.25,5.200012l-4.5,4.399994l-0.75,-0.75l-0.899996,-0.899994l-10.300002,-10.350006l-0.949997,-0.899994l-6.850007,-6.949999l0,40.599995l6.850007,-6.899994l0.949997,-0.899994l10.300002,-10.300018l0.899996,-0.949982l1.300001,-1.149994l4.399996,-4.5l3.900007,-3.950012l0.949997,-0.899994l8.299988,-8.300006l0.900024,-0.949997l5.699982,-5.650009l-5.699982,0l-0.900024,0l-8.299988,0l-0.949997,0l-9.600006,0" fill="#E0D1AF"/>
   <path id="svg_107" d="m26.19841,7.201048l9.600006,0l0,15.800004l-3.900009,3.950012l-0.449997,-0.450012l-5.25,-5.200012l0,-14.099992m28.800003,5.5l1.600006,-1.550003l0,40.500005l-1.600006,-1.549988l0,-37.40001m-0.899994,36.449998l-8.149994,-8.100002l0,-19.29999l8.149994,-8.149995l0,35.549991m-9.050018,-9.049988l-8.149994,-8.149994l-0.149994,-0.150023l0,-0.849977l8.299988,-8.300018l0,17.450012m-12.599991,-3.75l3.350006,3.399994l0,16.799988l-9.600006,0l0,-15.049988l5.699997,-5.700012l0.550003,0.550018m4.300003,4.299988l8.299988,8.350006l0,7.549988l-8.299988,0l0,-15.899994m9.200012,9.25l6.699982,6.649994l-6.699982,0l0,-6.649994m-20.650009,6.649994l-10.300003,0l0,-3.899994l10.300003,-10.25l0,14.149994m-11.25,0l-3,0l3,-3l0,3m22.699997,-49.349995l8.299988,0l0,6.600007l-8.299988,8.300005l0,-14.900012m9.200012,0l5.699982,0l-5.699982,5.65001l0,-5.65001m-18.450012,24.250018l-1.300003,1.149992l0,-2.45001l0.75,0.75l0.550003,0.550018m-2.199997,2.099977l-10.300003,10.300018l0,-24.950014l10.300003,10.350006l0,4.29999m-11.25,11.200012l-6.850006,6.899994l0,-40.599996l6.850006,6.949998l0,26.75m11.25,-24.399994l-10.300003,-10.300004l0,-2.850007l10.300003,0l0,13.150011m-11.25,-11.250001l-1.900009,-1.90001l1.900009,0l0,1.90001" fill="#ECE3CE"/>
   <path id="svg_108" d="m14.048416,9.101057l0,-1.900009l0.949997,0l0,2.850006l-0.949997,-0.949997m40.050003,4.5l0.899994,-0.900008l0,37.40001l-0.899994,-0.950012l0,-35.549994m-8.149994,27.449984l-0.900024,-0.949982l0,-17.450012l0.900024,-0.899994l0,19.299988m-10.150009,-1.299988l0.949997,0.899994l0,15.899994l-0.949997,0l0,-16.799988m9.249985,9.25l0.900024,0.899994l0,6.649994l-0.900024,0l0,-7.549988m-18.849991,7.549988l-0.899994,0l0,-14.149994l0.899994,-0.899994l0,15.049988m-11.199997,0l-0.949997,0l0,-3l0.949997,-0.899994l0,3.899994m21.350006,-25.099976l0.399994,-0.5l0,0.849976l-0.399994,-0.349976m-11.050003,-24.250018l0.899994,0l0,14.099993l-0.899994,-0.949982l0,-13.150012m10.5,0l0.949997,0l0,14.900012l-0.949997,0.899994l0,-15.800005m9.249985,0l0.900024,0l0,5.650009l-0.900024,0.949997l0,-6.600006m-18.849991,25.400012l-0.899994,0.949982l0,-4.299988l0.899994,0.899994l0,2.450012m-11.199997,11.25l-0.949997,0.899994l0,-26.75l0.949997,0.899994l0,24.950012" fill="#D7CEB9"/>
   <path id="svg_109" d="m36.898407,31.951065l-4.449997,4.399994l-0.550003,-0.550018l4.450012,-4.349976l0.399994,0.349976l0.149994,0.150024m-5,-5l-4.399994,4.5l-0.550003,-0.550018l4.5,-4.399994l0.449997,0.450012" fill="#C9C0AB"/>
   <path id="svg_110" d="m63.998413,10.501051l0,0.100006l0,0.549989l0,41.800019l-0.049988,2.449982l0,0.200012q-1.300018,8.399994 -10,8.399994l-43.900009,0q-3.25,0 -5.350006,-1.299988l-0.099991,0q-4.600006,-2.450012 -4.600006,-9.75l0,-41.80002l0,-0.549989l0,-0.100006q0.399994,-10.699997 10.050003,-10.5l43.900009,0l2.399994,0.25l-0.200012,0q7.600006,0.850006 7.850006,10.25" fill-opacity="0.301961" fill="#000000"/>
  </g>
 </g>
</svg>