<svg width="64" height="64" xmlns="http://www.w3.org/2000/svg">
 <!-- Created with Method Draw - http://github.com/duopixel/Method-Draw/ -->

 <g>
  <title>background</title>
  <rect x="-1" y="-1" width="66" height="66" id="canvas_background" fill="none"/>
  <g id="canvasGrid" display="none">
   <rect id="svg_1" width="100%" height="100%" x="0" y="0" stroke-width="0" fill="url(#gridpattern)"/>
  </g>
 </g>
 <g>
  <title>Layer 1</title>
  <path fill="#2A2A2A" d="m-113,155.163849l-4.449997,4.399994l-0.550003,-0.549988l4.450012,-4.400009l0.399994,0.350006l0.149994,0.199997m-5,-5.050003l-4.399994,4.5l-0.550003,-0.550003l4.5,-4.399994l0.449997,0.449997" id="svg_98"/>
  <g id="svg_280">
   <path fill="#F0CFB3" d="m12.225433,37.298477l0.299988,-0.25l1.850037,-1.649994q4.699951,-3.399963 10.449951,-2.499985q3.5,0.549973 6.150024,2.499985l-0.049988,0.149994q-0.700012,4.550018 -4.400024,7.300018l-0.200012,0.149994q-1.299988,0.949966 -2.75,1.499985l-0.049988,0q-5.149963,0 -8.700012,-3.649979l-1.899963,-2.350006l-0.700012,-1.200012" id="svg_209"/>
   <path fill="#FFDEC2" d="m12.225433,37.298477l0.700012,1.200012l1.899963,2.350006q3.550049,3.649979 8.700012,3.649979l0.049988,0q-2.649963,1.049988 -5.75,0.549988q-2.799988,-0.449982 -4.899963,-1.999985q-1.450012,-1 -2.600037,-2.549988l-0.149963,-0.25l1.099976,-1.800018l0.950012,-1.149994" id="svg_210"/>
   <path fill="#198EBF" d="m34.075409,38.648483l1.200012,2q1.900024,3.849991 1.200012,8.249985q-0.900024,5.75 -5.599976,9.149994q-4.700012,3.399994 -10.400024,2.5q-5.75,-0.899994 -9.150024,-5.600006q-3.449951,-4.699982 -2.549988,-10.399994q0.400024,-2.349991 1.400024,-4.299973l0.149963,0.25q1.150024,1.549988 2.600037,2.549988q2.099976,1.550003 4.899963,1.999985q3.100037,0.5 5.75,-0.549988q5.150024,0 8.75,-3.649979l1.75,-2.200012" id="svg_211"/>
   <path fill="#10719A" d="m34.075409,38.648483l-1.75,2.200012q-3.599976,3.649979 -8.75,3.649979q1.450012,-0.550018 2.75,-1.499985l0.200012,-0.149994q3.700012,-2.75 4.400024,-7.300018l0.049988,-0.149994q1.700012,1.299988 3,3.100006l0.099976,0.149994" id="svg_212"/>
   <path fill="#3D3D3D" d="m12.375458,23.148712q0.799988,-1.84996 1.949951,-1.84996q1.150024,0 1.950012,1.84996q0.799988,1.84996 0.799988,4.449905q0,2.649948 -0.799988,4.44989q-0.799988,1.849976 -1.950012,1.849976q-1.149963,0 -1.949951,-1.849976q-0.800049,-1.799942 -0.800049,-4.44989q0,-2.599945 0.800049,-4.449905m17.449951,15.599777q4.350037,-3.600006 -0.849976,-8.549942q-3.75,-3.599899 -10.299988,-7.999817l5,3.199936l0.049988,-0.049988l12,7.54982l-0.950012,1.549973l-1.399963,1.700012q-1.650024,1.649994 -3.550049,2.600006" id="svg_213"/>
   <path fill="#FFDEC2" d="m29.825409,38.748489q-2.849976,1.5 -6.349976,1.5q-5.799988,0 -9.900024,-4.100006q-4.149963,-4.099976 -4.149963,-9.899826q0,-4.699905 2.700012,-8.249817l0.949951,0.599991l5.600037,3.599899q6.549988,4.399918 10.299988,7.999817q5.200012,4.949936 0.849976,8.549942m-17.449951,-15.599777q-0.800049,1.84996 -0.800049,4.449905q0,2.649948 0.800049,4.44989q0.799988,1.849976 1.949951,1.849976q1.150024,0 1.950012,-1.849976q0.799988,-1.799942 0.799988,-4.44989q0,-2.599945 -0.799988,-4.449905q-0.799988,-1.84996 -1.950012,-1.84996q-1.149963,0 -1.949951,1.84996" id="svg_214"/>
   <path fill="#1680AD" d="m20.825409,52.648468l-0.049988,-0.100006q-1.450012,-2.100006 -1.450012,-5.100006q0,-2.949982 1.450012,-5.09996q1.450012,-2.100006 3.450012,-2.100006q2.049988,0 3.5,2.100006q1.400024,2.149979 1.400024,5.09996q0,3 -1.400024,5.100006l-0.349976,0.5q-0.150024,-1.100006 -0.950012,-1.899994q-1,-1 -2.350037,-1q-1.399963,0 -2.399963,1q-0.650024,0.649994 -0.850037,1.5" id="svg_215"/>
   <path fill="#FFDEC2" d="m20.825409,52.648468q0.200012,-0.850006 0.850037,-1.5q1,-1 2.399963,-1q1.350037,0 2.350037,1q0.799988,0.799988 0.950012,1.899994l0,0.450012q0,1.399994 -0.950012,2.350006q-1,1 -2.350037,1q-1.399963,0 -2.399963,-1q-0.950012,-0.950012 -0.950012,-2.350006l0.099976,-0.850006" id="svg_216"/>
   <path fill="#494949" d="m16.625458,63.698456q-2.200012,-0.399994 -2.200012,-2.099976q0,-1.75 2.149963,-2.950012q2.150024,-1.25 5.200012,-1.25q3.049988,0 5.200012,1.25q2.200012,1.200012 2.200012,2.950012q0,1.699982 -2.150024,2.049988l-5.149963,0.350006l-5.25,-0.300018" id="svg_217"/>
   <path fill="#D9AD00" d="m6.075409,22.298721l-0.699951,-0.449966q-2.850037,-1.549988 -4.5,-3.299942q-1.700012,-1.749954 -0.100037,-2.749939q1.549988,-0.999969 4.150024,0.399994l2.299988,1.249969q-0.400024,0.699997 -0.900024,3.049942l-0.25,1.799942" id="svg_218"/>
   <path fill="#FFD52E" d="m7.225433,17.448837q0.950012,-1.649963 3.200012,-4.749893q2.299988,-3.099915 5.149963,-4.349884l3.850037,-1.649979l0.75,-0.299988q2.649963,-0.899963 6.25,-0.699997q2.549988,0.100006 4.950012,1.299988q2.349976,1.199966 1.949951,1.799957q-7.849976,-2.699921 -11.949951,-1.499969q-4.050049,1.249969 -6.900024,3.749908q-2.799988,2.499954 -4.5,4.799911l-3.650024,4.649887q0.5,-2.349945 0.900024,-3.049942" id="svg_219"/>
   <path fill="#FFCC00" d="m33.325409,8.799042q2.600037,1.59996 4.450012,4.299911l1.5,2.499939q2.049988,3.799911 2,7.54982q0,4.499893 -0.700012,7.099854l-0.149963,0.499985l-1.200012,3.849945l-0.400024,1.099976q-4.599976,-0.25 -9.849976,-3.649963q-5.25,-3.399918 -14.450012,-5.899857q-4.700012,-1.349976 -8.450012,-3.84993l0.25,-1.799942l3.650024,-4.649887q1.700012,-2.299957 4.5,-4.799911q2.849976,-2.499939 6.900024,-3.749908q4.099976,-1.199951 11.949951,1.499969" id="svg_220"/>
  </g>
 </g>
</svg>