<svg width="64" height="64" xmlns="http://www.w3.org/2000/svg">
 <!-- Created with Method Draw - http://github.com/duopixel/Method-Draw/ -->

 <g>
  <title>background</title>
  <rect x="-1" y="-1" width="66" height="66" id="canvas_background" fill="none"/>
  <g id="canvasGrid" display="none">
   <rect id="svg_1" width="100%" height="100%" x="0" y="0" stroke-width="0" fill="url(#gridpattern)"/>
  </g>
 </g>
 <g>
  <title>Layer 1</title>
  <path fill="#2A2A2A" d="m-113,155.163849l-4.449997,4.399994l-0.550003,-0.549988l4.450012,-4.400009l0.399994,0.350006l0.149994,0.199997m-5,-5.050003l-4.399994,4.5l-0.550003,-0.550003l4.5,-4.399994l0.449997,0.449997" id="svg_98"/>
  <g id="svg_281">
   <path fill="#494949" d="m29.783051,59.549896l-2.949982,0.350006l-2.899994,-0.399994q-1.150024,-0.350006 -1.150024,-2.049988q0,-1.700012 1.200012,-2.950012q1.200012,-1.200012 2.899994,-1.200012q1.700012,0 2.950012,1.200012q1.199982,1.25 1.199982,2.950012q0,1.699982 -1.25,2.099976" id="svg_170"/>
   <path fill="#494949" d="m39.483063,59.549896l-2.950012,0.350006l-2.899994,-0.399994q-1.149994,-0.350006 -1.149994,-2.049988q0,-1.700012 1.200012,-2.950012q1.199982,-1.200012 2.899994,-1.200012q1.699982,0 2.949982,1.200012q1.200012,1.25 1.200012,2.950012q0,1.699982 -1.25,2.099976" id="svg_171"/>
   <path fill="#1680AD" d="m41.533051,49.399902l-0.049988,-0.049988q-1.049988,-2.100006 -1.049988,-5.050018q0,-3 1.049988,-5.149994q1.100006,-2.100006 2.600006,-2.100006q1.5,0 2.600006,2.100006q1,2.149994 1,5.149994q0,2.650024 -0.800018,4.600006q-0.199982,-0.75 -0.699982,-1.350006q-0.800018,-0.949982 -1.950012,-0.949982q-1.149994,0 -1.950012,0.949982q-0.649994,0.800018 -0.75,1.850006" id="svg_172"/>
   <path fill="#FFDEC2" d="m41.533051,49.399902q0.100006,-1.049988 0.75,-1.850006q0.800018,-0.949982 1.950012,-0.949982q1.149994,0 1.950012,0.949982q0.5,0.600006 0.699982,1.350006l0.050018,0.149994l0.049988,0.900024q0,1.399994 -0.799988,2.349976q-0.800018,1 -1.950012,1q-1.149994,0 -1.950012,-1q-0.799988,-0.949982 -0.799988,-2.349976l0,-0.450012l0.049988,-0.100006" id="svg_173"/>
   <path fill="#1680AD" d="m16.783051,49.399902l-0.049988,-0.049988q-1.049988,-2.100006 -1.049988,-5.050018q0,-3 1.049988,-5.149994q1.100006,-2.100006 2.600006,-2.100006q1.5,0 2.600006,2.100006q1.049988,2.149994 1.049988,5.149994q0,2.650024 -0.850006,4.600006l-0.699982,-1.350006q-0.800018,-0.949982 -1.950012,-0.949982q-1.100006,0 -1.950012,0.949982q-0.649994,0.800018 -0.75,1.850006" id="svg_174"/>
   <path fill="#FFDEC2" d="m16.783051,49.399902q0.100006,-1.049988 0.75,-1.850006q0.850006,-0.949982 1.950012,-0.949982q1.149994,0 1.950012,0.949982l0.699982,1.350006l0.050018,0.149994l0.099976,0.900024q0,1.399994 -0.849976,2.349976q-0.800018,1 -1.950012,1q-1.100006,0 -1.950012,-1q-0.799988,-0.949982 -0.799988,-2.349976l0,-0.450012l0.049988,-0.100006" id="svg_175"/>
   <path fill="#198EBF" d="m43.983063,35.399902q2.649994,4.300018 1.850006,9.450012q-0.899994,5.75 -5.600006,9.149994q-4.700012,3.399994 -10.399994,2.5q-5.75,-0.899994 -9.149994,-5.600006q-3.450012,-4.699982 -2.550018,-10.399994q0.399994,-2.350006 1.399994,-4.299988l0.800018,-1.350006l1.299988,0.75q4.300018,2.149994 10.800018,2.199982q6.5,0 8.899994,-1.199982l2.649994,-1.200012m-11.049988,12.600006q-0.050018,2.5 0.899994,4.899994q0.399994,1.100006 2,1.100006q1.549988,0.049988 2.25,-1.950012q0.850006,-2.649994 0.299988,-5.549988q-2.649994,1.649994 -5.449982,1.5m-7.75,4.049988q0.649994,2 2.199982,1.950012q1.600006,0 2,-1.100006q0.950012,-2.399994 0.899994,-4.899994q-2.799988,0.149994 -5.399994,-1.5q-0.600006,2.899994 0.300018,5.549988" id="svg_176"/>
   <path fill="#F0CFB3" d="m20.433075,34.699921l1.449982,-1.700012q0.850006,-0.899994 1.850006,-1.649994q4.700012,-3.399994 10.450012,-2.5q3.5,0.549988 6.149994,2.5q1.699982,1.299988 3,3.100006l0.299988,0.449982l0.350006,0.5q-4.299988,-0.75 -6.149994,-2.199982l-9.950012,-0.600006q-1.899994,1.949982 -7.449982,2.100006" id="svg_177"/>
   <path fill="#10719A" d="m20.433075,34.699921q5.549988,-0.150024 7.449982,-2.100006l9.950012,0.600006q1.850006,1.449982 6.149994,2.199982l-2.649994,1.200012q-2.399994,1.199982 -8.899994,1.199982q-6.5,-0.049988 -10.800018,-2.199982l-1.299988,-0.75l0.100006,-0.149994m12.5,13.299988q2.799988,0.149994 5.449982,-1.5q0.550018,2.899994 -0.299988,5.549988q-0.700012,2 -2.25,1.950012q-1.600006,0 -2,-1.100006q-0.950012,-2.399994 -0.899994,-4.899994m-7.75,4.049988q-0.900024,-2.649994 -0.300018,-5.549988q2.600006,1.649994 5.399994,1.5q0.050018,2.5 -0.899994,4.899994q-0.399994,1.100006 -2,1.100006q-1.549988,0.049988 -2.199982,-1.950012" id="svg_178"/>
   <path fill="#FFCC00" d="m34.533051,1.299896l0.25,0.050018q2.350006,0 4.25,1.350006l2.400024,0.049988q1.399994,0.899994 1.5,1.850006q7.099976,6.449982 7.349976,16.399994q0,3.75 -1.099976,6.299988q-2.700012,6 -6.350006,6.450012q-5.649994,-12.5 -8.300018,-32.450012m-13.349976,32.450012q-4.300018,-1.049988 -6.950012,-7.299988q-0.600006,-1.950012 -0.5,-5.450012q0.200012,-9.950012 7.350006,-16.399994q0.049988,-0.950012 1.5,-1.850006l2.350006,-0.049988q1.899994,-1.350006 4.299988,-1.350006l0.200012,-0.050018q-2.650024,19.950012 -8.25,32.450012" id="svg_179"/>
   <path fill="#FFD52E" d="m21.183075,33.749908q5.599976,-12.5 8.25,-32.450012q0.849976,-1.299988 2.549988,-1.299988q1.75,0 2.549988,1.299988q2.650024,19.950012 8.300018,32.450012q-5.450012,1.399994 -10.850006,1.450012q-5.399994,-0.050018 -10.799988,-1.450012" id="svg_180"/>
  </g>
 </g>
</svg>