<svg width="64" height="64" xmlns="http://www.w3.org/2000/svg">
 <!-- Created with Method Draw - http://github.com/duopixel/Method-Draw/ -->

 <g>
  <title>background</title>
  <rect x="-1" y="-1" width="66" height="66" id="canvas_background" fill="none"/>
  <g id="canvasGrid" display="none">
   <rect id="svg_1" width="100%" height="100%" x="0" y="0" stroke-width="0" fill="url(#gridpattern)"/>
  </g>
 </g>
 <g>
  <title>Layer 1</title>
  <path fill="#2A2A2A" d="m-113,155.163849l-4.449997,4.399994l-0.550003,-0.549988l4.450012,-4.400009l0.399994,0.350006l0.149994,0.199997m-5,-5.050003l-4.399994,4.5l-0.550003,-0.550003l4.5,-4.399994l0.449997,0.449997" id="svg_98"/>
  <g id="svg_283">
   <path fill="#10719A" d="m29.925499,42.052246l0.099998,-0.149963q1.300003,-1.800049 3,-3.100037l0.050003,0.150024q0.699997,4.549988 4.399994,7.299988l0.200005,0.150024q1.299995,0.949951 2.75,1.5q-5.150002,0 -8.75,-3.650024q-1.049995,-1 -1.75,-2.200012" id="svg_143"/>
   <path fill="#F0CFB3" d="m33.025497,38.802246q2.650002,-1.950012 6.150002,-2.5q5.75,-0.899963 10.450005,2.5l1.849991,1.650024l0.300003,0.25l-0.699997,1.200012l-1.900002,2.349976q-3.549995,3.650024 -8.700005,3.650024l-0.049995,0q-1.450005,-0.550049 -2.75,-1.5l-0.200005,-0.150024q-3.699997,-2.75 -4.399994,-7.299988l-0.050003,-0.150024" id="svg_144"/>
   <path fill="#198EBF" d="m53.8255,43.652283q1,1.949951 1.399994,4.299988q0.900009,5.700012 -2.549995,10.399963q-3.400002,4.700012 -9.150002,5.600037q-5.699997,0.899963 -10.399994,-2.5q-4.700005,-3.400024 -5.600006,-9.150024q-0.699997,-4.399963 1.199997,-8.25l1.200005,-2q0.700005,1.200012 1.75,2.200012q3.599998,3.650024 8.75,3.650024q2.650002,1.049988 5.75,0.549988q2.799995,-0.450012 4.900002,-2q1.449997,-1 2.600006,-2.549988l0.149994,-0.25" id="svg_145"/>
   <path fill="#FFDEC2" d="m53.8255,43.652283l-0.149994,0.25q-1.150009,1.549988 -2.600006,2.549988q-2.100006,1.549988 -4.900002,2q-3.099998,0.5 -5.75,-0.549988l0.049995,0q5.150009,0 8.700005,-3.650024l1.900002,-2.349976l0.699997,-1.200012l0.949997,1.149963l1.100006,1.800049" id="svg_146"/>
   <path fill="#FFDEC2" d="m45.3255,25.602234l5.599998,-3.59996l0.950005,-0.600006q2.699997,3.549988 2.699997,8.250015q0,5.799988 -4.150002,9.899963q-4.099998,4.100037 -9.900002,4.100037q-3.5,0 -6.349998,-1.5q-4.349998,-3.600037 0.849998,-8.550049q3.75,-3.599976 10.300003,-8m6.300003,0.950012q-0.800003,-1.849991 -1.950005,-1.849991q-1.150002,0 -1.950005,1.849991q-0.799995,1.850037 -0.799995,4.450012q0,2.650024 0.799995,4.450012q0.800003,1.849976 1.950005,1.849976q1.150002,0 1.950005,-1.849976q0.799995,-1.799988 0.799995,-4.450012q0,-2.599976 -0.799995,-4.450012" id="svg_147"/>
   <path fill="#3D3D3D" d="m51.625504,26.552246q0.799995,1.850037 0.799995,4.450012q0,2.650024 -0.799995,4.450012q-0.800003,1.849976 -1.950005,1.849976q-1.150002,0 -1.950005,-1.849976q-0.799995,-1.799988 -0.799995,-4.450012q0,-2.599976 0.799995,-4.450012q0.800003,-1.849991 1.950005,-1.849991q1.150002,0 1.950005,1.849991m-17.450005,15.600037q-1.900002,-0.950012 -3.549995,-2.600037l-1.400009,-1.700012l-0.949997,-1.549988l12,-7.549988l0.050003,0.049988l5,-3.200012q-6.550003,4.400024 -10.300003,8q-5.199997,4.950012 -0.849998,8.550049" id="svg_148"/>
   <path fill="#1680AD" d="m36.625504,56.452271l-0.350006,-0.5q-1.399994,-2.100037 -1.399994,-5.100037q0,-2.949951 1.399994,-5.099976q1.449997,-2.099976 3.5,-2.099976q2,0 3.449997,2.099976q1.450005,2.150024 1.450005,5.099976q0,3 -1.450005,5.100037l-0.049995,0.099976l-0.849998,-1.5q-1,-1 -2.400002,-1q-1.349998,0 -2.349998,1q-0.800003,0.799988 -0.949997,1.900024" id="svg_149"/>
   <path fill="#FFDEC2" d="m36.625504,56.452271q0.149994,-1.100037 0.949997,-1.900024q1,-1 2.349998,-1q1.400002,0 2.400002,1l0.849998,1.5l0.099998,0.850037q0,1.399963 -0.949997,2.349976q-1,1 -2.400002,1q-1.349998,0 -2.349998,-1q-0.949997,-0.950012 -0.949997,-2.349976l0,-0.450012" id="svg_150"/>
   <path fill="#494949" d="m47.375504,67.102234l-5.25,0.300049l-5.150009,-0.350037q-2.149994,-0.349976 -2.149994,-2.049988q0,-1.75 2.199997,-2.950012q2.150002,-1.25 5.199997,-1.25q3.050003,0 5.200005,1.25q2.150002,1.200012 2.150002,2.950012q0,1.700012 -2.199997,2.099976" id="svg_151"/>
   <path fill="#FFCC00" d="m57.925507,25.702271q-3.75,2.5 -8.450012,3.849976q-9.199997,2.5 -14.449997,5.900024q-5.25,3.399963 -9.849998,3.649963l-0.400002,-1.099976l-1.199997,-3.849976l-0.150002,-0.5q-0.700005,-2.600037 -0.700005,-7.100037q-0.049995,-3.749985 2,-7.549973l1.5,-2.5q1.850006,-2.700012 4.450005,-4.300018q7.849998,-2.699982 11.950005,-1.5q4.049995,1.25 6.899994,3.75q2.800003,2.5 4.5,4.800018l3.650009,4.649994l0.25,1.800003" id="svg_152"/>
   <path fill="#FFD52E" d="m57.675507,23.902267l-3.650009,-4.649994q-1.699997,-2.300018 -4.5,-4.800018q-2.849998,-2.5 -6.899994,-3.75q-4.100006,-1.199982 -11.950005,1.5q-0.400002,-0.600006 1.950005,-1.799988q2.399994,-1.200012 4.949997,-1.300018q3.599998,-0.199982 6.25,0.700012l0.75,0.299988l3.849998,1.650024q2.849998,1.25 5.150002,4.349976l3.199997,4.75l0.900009,3.050018" id="svg_153"/>
   <path fill="#D9AD00" d="m57.675507,23.902267l-0.900009,-3.050018l2.300003,-1.25q2.600006,-1.399994 4.149994,-0.399994q1.600006,1 -0.100006,2.75q-1.649994,1.75 -4.499985,3.300003l-0.699997,0.450012l-0.25,-1.800003" id="svg_154"/>
  </g>
 </g>
</svg>