<svg width="64" height="64" xmlns="http://www.w3.org/2000/svg">
 <!-- Created with Method Draw - http://github.com/duopixel/Method-Draw/ -->

 <g>
  <title>background</title>
  <rect x="-1" y="-1" width="66" height="66" id="canvas_background" fill="none"/>
  <g id="canvasGrid" display="none">
   <rect id="svg_1" width="100%" height="100%" x="0" y="0" stroke-width="0" fill="url(#gridpattern)"/>
  </g>
 </g>
 <g>
  <title>Layer 1</title>
  <path fill="#2A2A2A" d="m-113,155.163849l-4.449997,4.399994l-0.550003,-0.549988l4.450012,-4.400009l0.399994,0.350006l0.149994,0.199997m-5,-5.050003l-4.399994,4.5l-0.550003,-0.550003l4.5,-4.399994l0.449997,0.449997" id="svg_98"/>
  <g id="svg_282">
   <path fill="#F0CFB3" d="m21.23254,37.75087q0.649994,-0.800018 1.449982,-1.450012l0,-0.049988l0.149994,-0.150024q1.5,-1.25 3.450012,-2.099976q5.299988,-2.400024 10.75,-0.300018q1.200012,0.450012 2.200012,1.100006l1.349976,0.899994l0.050018,0.050018l1.549988,1.399994l0.050018,0.699982l-0.200012,2l-0.149994,0.800018q-0.550018,1.149994 -2.350006,2.699982l-1.25,0.800018l-2.100006,1.199982q-2.149994,0.900024 -4.699982,0.900024q-2.450012,0 -4.5,-0.850006q-2.100006,-0.850006 -3.850006,-2.600006l-1.450012,-1.700012l-0.049988,-0.25q-0.399994,-1.399994 -0.399994,-3l0,-0.099976" id="svg_155"/>
   <path fill="#10719A" d="m21.23254,37.75087l0,0.099976q0,1.600006 0.399994,3l0.049988,0.25q-0.75,-1.099976 -1.199982,-2.299988l0.099976,-0.25l0.300018,-0.350006l0.049988,-0.100006l0.050018,-0.099976l0.25,-0.25m20.949982,-0.600006l0.149994,0.149994l0.100006,0.100006l0.149994,0.149994l0.25,0.299988l-0.799988,2l0.200012,-2l-0.050018,-0.699982" id="svg_156"/>
   <path fill="#FFDEC2" d="m21.682522,41.100845l1.450012,1.700012q1.75,1.75 3.850006,2.600006q2.049988,0.850006 4.5,0.850006q2.549988,0 4.699982,-0.900024l2.100006,-1.199982l1.25,-0.800018q1.799988,-1.549988 2.350006,-2.699982q-0.700012,2.600006 -2.75,4.649994q-1.450012,1.450012 -3.25,2.25q-1.899994,0.799988 -4.149994,0.799988q-2.150024,0 -4.050018,-0.75q-1.850006,-0.75 -3.399994,-2.299988q-1.850006,-1.899994 -2.600006,-4.200012" id="svg_157"/>
   <path fill="#198EBF" d="m21.682522,41.100845q0.75,2.300018 2.600006,4.200012q1.549988,1.549988 3.399994,2.299988q1.899994,0.75 4.050018,0.75q2.25,0 4.149994,-0.799988q1.799988,-0.799988 3.25,-2.25q2.049988,-2.049988 2.75,-4.649994l0.149994,-0.800018l0.799988,-2l0.25,0.300018l0.300018,0.399994l0.399994,0.600006l1,1.949982l0.799988,2.100006q1.200012,4.300018 -0.5,8.600006q-2.099976,5.399994 -7.399994,7.75q-5.299988,2.350006 -10.75,0.299988q-5.399994,-2.099976 -7.75,-7.399994q-1.75,-3.899994 -1.049988,-7.899994q0.25,-1.399994 0.799988,-2.799988l0.850006,-1.900024l0.399994,-0.699982l0.300018,-0.350006q0.449982,1.200012 1.199982,2.299988" id="svg_158"/>
   <path fill="#3D3D3D" d="m40.282528,17.050858l2.100006,1.799988q4.399994,4.350006 4.399994,10.5q0,2.600006 -0.799988,4.900024q0,-10.400024 -5.700012,-17.200012m-22.200012,17.649994q-0.949982,-2.5 -0.949982,-5.350006q0,-6.149994 4.350006,-10.5q1.149994,-1.199982 2.5,-2.049988q-6.050018,7 -5.900024,17.899994m16.850006,-7.100006q0.899994,-1.949982 2.100006,-1.949982q1.25,0 2.100006,1.949982l0.350006,1q0.5,1.650024 0.5,3.800018q0,2.799988 -0.850006,4.75q-0.850006,2 -2.100006,2q-1.200012,0 -2.100006,-2q-0.850006,-1.950012 -0.850006,-4.75l0,-0.300018q0.050018,-2.599976 0.850006,-4.5m-6.549988,0l0.399994,1q0.5,1.650024 0.5,3.800018q0,2.799988 -0.899994,4.75q-0.850006,2 -2.050018,2q-1.25,0 -2.099976,-2q-0.850006,-1.950012 -0.850006,-4.75l0,-0.300018q0.049988,-2.599976 0.850006,-4.5q0.849976,-1.949982 2.099976,-1.949982q1.200012,0 2.050018,1.949982" id="svg_159"/>
   <path fill="#FFDEC2" d="m28.382534,27.600845q-0.850006,-1.949982 -2.050018,-1.949982q-1.25,0 -2.099976,1.949982q-0.800018,1.900024 -0.850006,4.5l0,0.300018q0,2.799988 0.850006,4.75q0.849976,2 2.099976,2q1.200012,0 2.050018,-2q0.899994,-1.950012 0.899994,-4.75q0,-2.149994 -0.5,-3.800018l-0.399994,-1m17.600006,6.650024q-1.100006,3.049988 -3.600006,5.5q-4.300018,4.349976 -10.450012,4.349976q-6.149994,0 -10.449982,-4.349976q-2.300018,-2.25 -3.400024,-5.050018q-0.149994,-10.899994 5.900024,-17.899994q3.5,-2.299989 7.949982,-2.299989q4.550018,0 8.100006,2.399995l0.25,0.149994q5.700012,6.799988 5.700012,17.200012m-11.050018,-6.650024q-0.799988,1.900024 -0.850006,4.5l0,0.300018q0,2.799988 0.850006,4.75q0.899994,2 2.100006,2q1.25,0 2.100006,-2q0.850006,-1.950012 0.850006,-4.75q0,-2.149994 -0.5,-3.800018l-0.350006,-1q-0.850006,-1.949982 -2.100006,-1.949982q-1.200012,0 -2.100006,1.949982" id="svg_160"/>
   <path fill="#FFCC00" d="m34.332516,6.900863l0.25,0.049988q2.400024,0 4.400024,1.350006l2.399994,0.100006q1.449982,0.899994 1.549988,1.899994q7.350006,6.600007 6.800018,20.500001q-1.25,-3.049988 -5.600006,-4.200012l-6.300018,-1.5q-2.099976,-7.599976 -3.5,-18.199982m-20.049988,23.149994q-1.149994,-13.149994 6.200012,-19.750001q0.049988,-1 1.5,-1.899994l2.449982,-0.100006q2,-1.350006 4.399994,-1.350006l0.200012,-0.049988q-1.350006,10.600007 -3.350006,18.600007l-5.25,1.099976q-3.350006,0.850006 -6.149994,3.450012" id="svg_161"/>
   <path fill="#FFD52E" d="m29.032528,6.900863q0.850006,-1.350006 2.649994,-1.350006q1.800018,0 2.649994,1.350006q1.400024,10.600007 3.5,18.199982l-12.149994,0.400024q2,-8 3.350006,-18.600007" id="svg_162"/>
   <path fill="#D9AD00" d="m49.73254,30.800858q1.599976,3.799988 -4.650024,5.200012q2.200012,-3.25 -1.799988,-5.650024q-4.049988,-2.399994 -11.100006,-2.549988q-7.049988,-0.200012 -11.199982,2.450012q-4.200012,2.649994 -2,6.349976q-6.350006,-2.799988 -4.700012,-6.549988q2.799988,-2.600006 6.149994,-3.450012l5.25,-1.099976l12.149994,-0.400024l6.300018,1.5q4.350006,1.150024 5.600006,4.200012" id="svg_163"/>
   <path fill="#1680AD" d="m41.582516,53.50087l0,-0.050018q-1.099976,-2.100006 -1.099976,-5.100006q0,-2.949982 1.099976,-5.099976q1.050018,-2.100006 2.550018,-2.100006q1.549988,0 2.600006,2.100006q1.049988,2.149994 1.049988,5.099976q0,2.700012 -0.850006,4.650024l-0.699982,-1.350006q-0.800018,-0.950012 -1.900024,-0.950012q-1.149994,0 -2,0.950012q-0.599976,0.799988 -0.75,1.850006" id="svg_164"/>
   <path fill="#FFDEC2" d="m41.582516,53.50087q0.150024,-1.050018 0.75,-1.850006q0.850006,-0.950012 2,-0.950012q1.100006,0 1.900024,0.950012l0.699982,1.350006l0.050018,0.149994l0.099976,0.899994q0,1.350006 -0.849976,2.350006q-0.800018,1 -1.900024,1q-1.149994,0 -2,-1q-0.799988,-1 -0.799988,-2.350006l0.049988,-0.5l0,-0.049988" id="svg_165"/>
   <path fill="#1680AD" d="m16.832516,53.50087l-0.049988,-0.050018q-1.049988,-2.100006 -1.049988,-5.049988q0,-3 1.049988,-5.100006q1.100006,-2.149994 2.600006,-2.149994q1.5,0 2.600006,2.149994q1,2.100006 1,5.100006q0,2.649994 -0.800018,4.600006l-0.699982,-1.300018q-0.800018,-1 -1.950012,-1q-1.149994,0 -1.950012,1q-0.649994,0.75 -0.75,1.800018" id="svg_166"/>
   <path fill="#FFDEC2" d="m16.832516,53.50087q0.100006,-1.050018 0.75,-1.800018q0.800018,-1 1.950012,-1q1.149994,0 1.950012,1l0.699982,1.300018l0.050018,0.199982l0.049988,0.850006q0,1.399994 -0.799988,2.350006q-0.800018,1 -1.950012,1q-1.149994,0 -1.950012,-1q-0.799988,-0.950012 -0.799988,-2.350006l0,-0.450012l0.049988,-0.099976" id="svg_167"/>
   <path fill="#494949" d="m30.082516,63.650864l-2.949982,0.350006l-2.899994,-0.400024q-1.200012,-0.349976 -1.200012,-2.049988q0,-1.700012 1.200012,-2.950012q1.25,-1.199982 2.949982,-1.199982q1.649994,0 2.899994,1.199982q1.200012,1.25 1.200012,2.950012q0,1.700012 -1.200012,2.100006" id="svg_168"/>
   <path fill="#494949" d="m33.932522,63.600845q-1.199982,-0.349976 -1.199982,-2.049988q0,-1.700012 1.199982,-2.950012q1.25,-1.199982 2.899994,-1.199982q1.700012,0 2.950012,1.199982q1.200012,1.25 1.200012,2.950012q0,1.700012 -1.200012,2.100006l-3,0.350006l-2.850006,-0.400024" id="svg_169"/>
  </g>
 </g>
</svg>