<svg width="64" height="64" xmlns="http://www.w3.org/2000/svg">
 <!-- Created with Method Draw - http://github.com/duopixel/Method-Draw/ -->

 <g>
  <title>background</title>
  <rect fill="none" id="canvas_background" height="66" width="66" y="-1" x="-1"/>
  <g display="none" id="canvasGrid">
   <rect fill="url(#gridpattern)" stroke-width="0" y="0" x="0" height="100%" width="100%" id="svg_1"/>
  </g>
 </g>
 <g>
  <title>Layer 1</title>
  <path id="svg_98" d="m-113,155.163849l-4.449997,4.399994l-0.550003,-0.549988l4.450012,-4.400009l0.399994,0.350006l0.149994,0.199997m-5,-5.050003l-4.399994,4.5l-0.550003,-0.550003l4.5,-4.399994l0.449997,0.449997" fill="#2A2A2A"/>
  <g id="svg_287">
   <path id="svg_115" d="m43.000793,43.051575q-4.500031,4.550003 -11.000031,4.550003q-6.5,0 -11.04999,-4.550003q-4.549988,-4.550003 -4.549988,-11.050003q0,-6.449997 4.549988,-11.050003q4.54999,-4.500008 11.04999,-4.500008q6.5,0 11.000031,4.500008q4.599976,4.600006 4.599976,11.050003q0,6.5 -4.599976,11.050003m-2.849976,-2.900009q3.399963,-3.349991 3.399963,-8.149994q0,-4.800003 -3.399963,-8.199997q-3.350067,-3.350006 -8.150055,-3.350006q-4.799988,0 -8.150024,3.350006q-3.349976,3.399994 -3.349976,8.199997q0,4.800003 3.349976,8.149994q3.350037,3.400009 8.150024,3.400009q4.799988,0 8.150055,-3.400009" fill="#198EBF"/>
   <path id="svg_116" d="m40.150818,40.151566q-3.350067,3.400009 -8.150055,3.400009q-4.799988,0 -8.150024,-3.400009q-3.349976,-3.349991 -3.349976,-8.149994q0,-4.800003 3.349976,-8.199997q3.350037,-3.350006 8.150024,-3.350006q4.799988,0 8.150055,3.350006q3.399963,3.399994 3.399963,8.199997q0,4.800003 -3.399963,8.149994" fill="#1EA7E1"/>
   <path id="svg_277" d="m64.000732,0.001564l0,64.000008l-63.999969,0l0,-64.000008l63.999969,0" stroke-linejoin="round" stroke-linecap="round" stroke-opacity="0" stroke="#FF00CC" fill="none"/>
  </g>
 </g>
</svg>