<svg width="64" height="64" xmlns="http://www.w3.org/2000/svg">
 <!-- Created with Method Draw - http://github.com/duopixel/Method-Draw/ -->

 <g>
  <title>background</title>
  <rect fill="none" id="canvas_background" height="66" width="66" y="-1" x="-1"/>
  <g display="none" id="canvasGrid">
   <rect fill="url(#gridpattern)" stroke-width="0" y="0" x="0" height="100%" width="100%" id="svg_1"/>
  </g>
 </g>
 <g>
  <title>Layer 1</title>
  <path id="svg_98" d="m-113,155.163849l-4.449997,4.399994l-0.550003,-0.549988l4.450012,-4.400009l0.399994,0.350006l0.149994,0.199997m-5,-5.050003l-4.399994,4.5l-0.550003,-0.550003l4.5,-4.399994l0.449997,0.449997" fill="#2A2A2A"/>
  <g id="svg_286">
   <path id="svg_77" d="m32.00058,20.450424q-4.799988,0 -8.150024,3.349977q-3.349976,3.400023 -3.349976,8.20001q0,4.799988 3.349976,8.149994q3.350039,3.399994 8.150024,3.399994q4.799988,0 8.150024,-3.399994q3.399963,-3.350006 3.399963,-8.149994q0,-4.799988 -3.399963,-8.20001q-3.350037,-3.349977 -8.150024,-3.349977m11,0.5q4.599976,4.599977 4.599976,11.049988q0,6.5 -4.599976,11.049988q-4.5,4.550018 -11,4.550018q-6.5,0 -11.049988,-4.550018q-4.549988,-4.549988 -4.549988,-11.049988q0,-6.450012 4.549988,-11.049988q4.549988,-4.5 11.049988,-4.5q6.5,0 11,4.5" fill="#E0D1AF"/>
   <path id="svg_78" d="m32.00058,20.450424q4.799988,0 8.150024,3.349977q3.399963,3.400023 3.399963,8.20001q0,4.799988 -3.399963,8.149994q-3.350037,3.399994 -8.150024,3.399994q-4.799988,0 -8.150024,-3.399994q-3.349976,-3.350006 -3.349976,-8.149994q0,-4.799988 3.349976,-8.20001q3.350039,-3.349977 8.150024,-3.349977" fill="#ECE3CE"/>
   <path id="svg_273" d="m64.00058,64.000412l-64,0l0,-63.999996l64,0l0,63.999996" stroke-linejoin="round" stroke-linecap="round" stroke-opacity="0" stroke="#FF00CC" fill="none"/>
  </g>
 </g>
</svg>