<svg width="64" height="64" xmlns="http://www.w3.org/2000/svg">
 <!-- Created with Method Draw - http://github.com/duopixel/Method-Draw/ -->

 <g>
  <title>background</title>
  <rect fill="#2e2e2e" id="canvas_background" height="66" width="66" y="-1" x="-1"/>
  <g display="none" id="canvasGrid">
   <rect fill="url(#gridpattern)" stroke-width="0" y="0" x="0" height="100%" width="100%" id="svg_1"/>
  </g>
 </g>
 <g>
  <title>Layer 1</title>
  <path id="svg_98" d="m-113,155.163849l-4.449997,4.399994l-0.550003,-0.549988l4.450012,-4.400009l0.400002,0.350006l0.149986,0.199997m-5,-5.050003l-4.399986,4.5l-0.550011,-0.550003l4.5,-4.399994l0.449997,0.449997" fill="#2A2A2A"/>
  <g id="svg_284">
   <path id="svg_41" d="m55.748505,2.751036l-0.100006,0.10001q-0.649994,0.750001 -0.899994,1.549989q-0.350006,0.75 -0.350006,1.650013l0,0.099987q0,0.900013 0.350006,1.75l0.899994,1.450012q1,0.89999 2.300003,1.200002l0.800003,0.049998l3.449997,0l0,11.199986l-3.350006,0q-1.849991,0 -3.199997,1.249996q-1.25,1.399994 -1.25,3.199989q0,1.950005 1.25,3.200008q1.350006,1.400023 3.199997,1.400023l3.350006,0l0,11.300001l-3.350006,0q-1.849991,0 -3.199997,1.300003q-1.25,1.350006 -1.25,3.199997l0,0.099998l0.100006,0.900002q0.149994,1.300003 1.149994,2.300003q1.350006,1.350006 3.199997,1.350006l2.450012,0l0,-0.100006l0.899994,0l0,10.049999l-3,0l1.199997,-0.899994q1.350006,-1.25 1.350006,-3.200012q0,-1.799988 -1.350006,-3.199993q-1.300003,-1.25 -3.199997,-1.25l-7.25,0q-1.850006,0 -3.199997,1.25q-1.25,1.400005 -1.25,3.199993l0,0.200012q0,1.799988 1.25,3.199997l1,0.699997l-6.550003,0l1,-0.699997q1.350006,-1.400009 1.350006,-3.199997q0,-1.950012 -1.350006,-3.200008q-1.25,-1.400002 -3.199997,-1.400002l-7.25,0q-1.800003,0 -3.199997,1.400002q-1.25,1.249996 -1.25,3.200008q0,1.799988 1.25,3.199997q0.449997,0.449997 1,0.699997l-6.550003,0l0.650009,-0.350006l0.349991,-0.349991q1.400009,-1.400009 1.400009,-3.199997q0,-1.950012 -1.400009,-3.200008l-0.349991,-0.349991q-1.150009,-1.050011 -2.800003,-1.050011l-7.300004,0q-1.800003,0 -3.149993,1.400002q-1.300003,1.249996 -1.300003,3.200008q0,1.799988 1.300003,3.199997l1,0.699997l-6.300003,0l1,-0.800003l0.199996,-0.099991q1.199997,-1.25 1.199997,-3l0,-0.100006q0,-1.850006 -1.399994,-3.199993q-1.150009,-1.199997 -3,-1.300011l-0.150009,0l-1.399994,0l0,-2.25q0.75,0.550011 1.550003,0.800011l1.300004,0.199989l7.34999,0q1.800003,0 3.199997,-1.399986q0.90001,-0.900009 1.15001,-2.150009l0.099991,-0.849991l0,-0.200012l0,-0.049988l-0.099991,-0.850014q-0.25,-1.25 -1.15001,-2.299995q-0.75,-0.599991 -1.449997,-0.899994l-1.75,-0.350006l-7.34999,0l-1.300004,0.150009l-1.550003,0.849991l0,-1.649994l1.399994,0l0.150009,0q1.75,-0.100006 3,-1.350006q1.399994,-1.300003 1.399994,-3.200005q0,-1.849998 -1.399994,-3.199989q-1.25,-1.300011 -3,-1.300011l-0.150009,0l-1.399994,0l0,-2.950012l1.550003,0.849998l1.300004,0.200014l7.34999,0q1.800003,0 3.199997,-1.400023q0.90001,-0.9 1.15001,-2.200008l0.099991,-0.799995l0,-0.200005l0,-0.099998l-0.099991,-0.799988q-0.25,-1.300003 -1.15001,-2.300003q-0.75,-0.650009 -1.449997,-0.900009l-1.75,-0.349987l-7.34999,0l-1.300004,0.14999l-1.550003,0.85001l0,-1.5l1.399994,0l0.150009,0q1.75,-0.050011 3,-1.35001q1.399994,-1.300003 1.399994,-3.200001q0,-1.849998 -1.399994,-3.199977q-1.25,-1.300009 -3,-1.300009l-0.150009,0l-1.399994,0l0,-2.449988q0.75,0.549998 1.550003,0.799998l1.300004,0.200002l7.34999,0q1.800003,0 3.199997,-1.25q1.250001,-1.400013 1.250001,-3.200001l0,-0.10001l-0.199997,-1.39999q-0.349992,-1 -1.050004,-1.700013l-0.099991,-0.099987l-0.300003,-0.300011l4.949998,0l-0.399994,0.399998q-1.25,1.250001 -1.25,3.200013q0,1.799988 1.25,3.200001q1.399994,1.25 3.199997,1.25l7.25,0q1.949997,0 3.199997,-1.25q1.350006,-1.400013 1.350006,-3.200001q0,-1.950012 -1.350006,-3.200013l-0.25,-0.399998l4.800003,0l-0.199997,0.200001q-1.25,1.250001 -1.25,3.199998q0,1.800003 1.25,3.200012q1.399994,1.25 3.199997,1.25l7.25,0q1.949997,0 3.199997,-1.25q1.349991,-1.400009 1.349991,-3.200012q0,-1.949997 -1.349991,-3.199998l-0.100006,-0.200001l5.100006,0m4.649994,30.550024q-1.300003,-1.300011 -3.199997,-1.300011l-7.25,0q-1.850006,0 -3.199997,1.300011q-1.25,1.349991 -1.25,3.199989l0,0.100014l0.050003,0.899986q0.199997,1.300011 1.199997,2.300011q1.349991,1.349991 3.199997,1.349991l7.25,0q1.899994,0 3.199997,-1.349991l0.900009,-1.300011q0.449997,-0.899986 0.449997,-2q0,-1.849998 -1.350006,-3.199989m-3.199997,-12.700027q1.899994,0 3.199997,-1.400009l0.699997,-0.800003q0.650009,-1 0.650009,-2.399998q0,-1.349997 -0.75,-2.449977l-0.600006,-0.749997q-1.300003,-1.25 -3.199997,-1.25l-7.25,0q-1.850006,0 -3.199997,1.25q-1.25,1.399983 -1.25,3.199974q0,1.950001 1.25,3.200001q1.349991,1.400009 3.199997,1.400009l7.25,0m-16.899994,1.200001q-1.800003,0 -3.199997,1.249996q-1.25,1.399994 -1.25,3.199989q0,1.950005 1.25,3.200008q1.399994,1.400023 3.199997,1.400023l7.25,0q1.949997,0 3.199997,-1.400023q1.349991,-1.250006 1.349991,-3.200008q0,-1.799995 -1.349991,-3.199989q-1.25,-1.249996 -3.199997,-1.249996l-7.25,0m1.899994,-2.200001q1.350006,-1.299999 1.350006,-3.200012q0,-1.849979 -1.350006,-3.199982q-1.25,-1.300002 -3.199997,-1.300002l-7.25,0q-1.799988,0 -3.199997,1.300002q-1.25,1.350002 -1.25,3.199982q0,1.900013 1.25,3.200012q1.400009,1.349991 3.199997,1.349991l7.25,0q1.949997,0 3.199997,-1.349991m-19.899994,2.200001q-1.800003,0 -3.199997,1.249996q-1.25,1.399994 -1.25,3.199989q0,1.950005 1.25,3.200008q1.399994,1.400023 3.199997,1.400023l7.25,0q1.949997,0 3.199997,-1.400023q1.350006,-1.250006 1.350006,-3.200008q0,-1.799995 -1.350006,-3.199989q-1.25,-1.249996 -3.199997,-1.249996l-7.25,0m-1.449997,-0.85001q1.649994,0 2.800003,-1l0.349991,-0.349991q1.400009,-1.299999 1.400009,-3.200012q0,-1.849979 -1.400009,-3.199982l-0.349991,-0.300002q-1.150009,-1 -2.800003,-1l-7.300004,0q-1.800003,0 -3.149994,1.300002q-1.300003,1.350002 -1.300003,3.199982q0,1.900013 1.300003,3.200012q1.349991,1.349991 3.149994,1.349991l7.300004,0m19.449997,21.300026q-1.300003,0 -2.350006,0.650002q-0.449997,0.25 -0.849991,0.650009q-1.25,1.349991 -1.25,3.199989q0,1.900002 1.25,3.200005q1.399994,1.350006 3.199997,1.350006l7.25,0q1.949997,0 3.199997,-1.350006q1.349991,-1.300003 1.349991,-3.200005q0,-1.849998 -1.349991,-3.199989q-0.349991,-0.400009 -0.800003,-0.650009q-1,-0.650002 -2.399994,-0.650002l-7.25,0m-21.199997,1.300011q-1.25,1.349991 -1.25,3.199989q0,1.900002 1.25,3.200005q1.399994,1.350006 3.199997,1.350006l7.25,0q1.949997,0 3.199997,-1.350006q1.350006,-1.300003 1.350006,-3.200005q0,-1.849998 -1.350006,-3.199989l-0.79999,-0.650009q-0.999998,-0.650002 -2.400007,-0.650002l-7.25,0q-1.300003,0 -2.349991,0.650002l-0.850006,0.650009m4.550003,-10.449997q-1.150009,-1 -2.800003,-1l-7.299989,0q-1.800018,0 -3.150009,1.299988q-1.300003,1.350014 -1.300003,3.200012q0,1.900002 1.300003,3.199997q1.349991,1.349991 3.150009,1.349991l7.299989,0q1.649994,0 2.800003,-1l0.349991,-0.349991q1.400009,-1.300011 1.400009,-3.199997l-0.449997,-1.950012l-0.950012,-1.25l-0.349991,-0.299988m8.099991,-1q-1.799988,0 -3.199982,1.299988q-0.550018,0.650009 -0.800018,1.25q-0.449982,0.950012 -0.449982,1.950012q0,1.900002 1.25,3.199997q1.399994,1.349991 3.199982,1.349991l7.25,0q1.949997,0 3.199997,-1.349991q1.350021,-1.300011 1.350021,-3.199997q0,-1 -0.450027,-1.950012l-0.899994,-1.25q-1.25,-1.299988 -3.199997,-1.299988l-7.25,0" fill="#5C5C5C"/>
   <path id="svg_42" d="m31.748505,32.101063l7.25,0q1.949997,0 3.199997,1.299988l0.899994,1.25q0.450012,0.950012 0.450012,1.950012q0,1.899986 -1.350006,3.199997q-1.25,1.349991 -3.199997,1.349991l-7.25,0q-1.800003,0 -3.199997,-1.349991q-1.25,-1.300011 -1.25,-3.199997q0,-1 0.449997,-1.950012q0.25,-0.599991 0.800003,-1.25q1.399994,-1.299988 3.199997,-1.299988m30.449997,-21.500014l-3.449997,0l-0.800003,-0.049999q-1.300003,-0.300012 -2.300003,-1.200001l-0.899994,-1.450013q-0.350006,-0.849987 -0.350006,-1.75l0,-0.099987q0,-0.900013 0.350006,-1.650013q0.25,-0.799988 0.899994,-1.549989l0.100006,-0.10001l6.449997,0l0,7.850012m-11.550003,-7.850012l0.100006,0.200001q1.349991,1.250001 1.349991,3.199997q0,1.800004 -1.349991,3.200012q-1.25,1.25 -3.199997,1.25l-7.25,0q-1.800003,0 -3.199997,-1.25q-1.25,-1.400009 -1.25,-3.200012q0,-1.949996 1.25,-3.199997l0.199997,-0.200001l13.349991,0m-18.149994,0l0.25,0.399998q1.350006,1.250001 1.350006,3.200013q0,1.799988 -1.350006,3.200001q-1.25,1.25 -3.199997,1.25l-7.25,0q-1.800003,0 -3.199997,-1.25q-1.25,-1.400013 -1.25,-3.200001q0,-1.950012 1.25,-3.200013l0.399994,-0.399998l13,0m-17.949997,0l0.300003,0.300011l0.099991,0.099987q0.700012,0.700013 1.050004,1.700013l0.199996,1.39999l0,0.10001q0,1.799988 -1.25,3.200001q-1.399994,1.25 -3.199997,1.25l-7.349991,0l-1.300003,-0.200001q-0.800003,-0.25 -1.550003,-0.799999l0,-7.050013l13,0m-13,9.500002l1.399994,0l0.150009,0q1.75,0 3,1.300009q1.399994,1.349979 1.399994,3.199976q0,1.899998 -1.399994,3.200001q-1.25,1.299999 -3,1.350012l-0.150009,0l-1.399994,0l0,-9.049996m0,10.549996l1.550003,-0.850012l1.300003,-0.149988l7.349991,0l1.75,0.349985q0.699997,0.25 1.449997,0.900009q0.90001,1 1.150009,2.300003l0.099991,0.799988l0,0.099998l0,0.200005l-0.099991,0.799995q-0.249999,1.300011 -1.150009,2.200008q-1.399994,1.400024 -3.199997,1.400024l-7.349991,0l-1.300003,-0.200014l-1.550003,-0.85l0,-7.000002m0,9.950014l1.399994,0l0.150009,0q1.75,0 3,1.300011q1.399994,1.349991 1.399994,3.199989q0,1.900002 -1.399994,3.200005q-1.25,1.25 -3,1.350006l-0.150009,0l-1.399994,0l0,-9.050011m0,10.700005l1.550003,-0.849991l1.300003,-0.150009l7.349991,0l1.75,0.350006q0.699997,0.300003 1.449997,0.899994q0.90001,1.049995 1.150009,2.299995l0.099991,0.850014l0,0.049988l0,0.200012l-0.099991,0.849991q-0.249999,1.25 -1.150009,2.150009q-1.399994,1.399986 -3.199997,1.399986l-7.349991,0l-1.300003,-0.199989q-0.800003,-0.25 -1.550003,-0.800011l0,-7.049995m0,9.299995l1.399994,0l0.150009,0q1.849991,0.100014 3,1.300011q1.399994,1.349987 1.399994,3.199993l0,0.100006q0,1.75 -1.199997,3l-0.199997,0.099991l-1,0.800003l-3.550003,0l0,-8.500004m9.850006,8.500004l-1,-0.699997q-1.300003,-1.400009 -1.300003,-3.199997q0,-1.950012 1.300003,-3.200008q1.349991,-1.400002 3.149994,-1.400002l7.300003,0q1.649994,0 2.800003,1.050011l0.349991,0.349991q1.400009,1.249996 1.400009,3.200008q0,1.799988 -1.400009,3.199997l-0.349991,0.349991l-0.650009,0.350006l-11.599991,0m18.149994,0q-0.550003,-0.25 -1,-0.699997q-1.25,-1.400009 -1.25,-3.199997q0,-1.950012 1.25,-3.200008q1.399994,-1.400002 3.199997,-1.400002l7.25,0q1.949997,0 3.199997,1.400002q1.350006,1.249996 1.350006,3.200008q0,1.799988 -1.350006,3.199997l-1,0.699997l-11.649994,0m18.199997,0l-1,-0.699997q-1.25,-1.400009 -1.25,-3.199997l0,-0.200012q0,-1.799988 1.25,-3.199993q1.349991,-1.25 3.199997,-1.25l7.25,0q1.899994,0 3.199997,1.25q1.350006,1.400005 1.350006,3.199993q0,1.950012 -1.350006,3.200012l-1.199997,0.899994l-11.449997,0m14.449997,-10.049999l-0.899994,0l0,0.100006l-2.450012,0q-1.849991,0 -3.199997,-1.350006q-1,-1 -1.149994,-2.300003l-0.100006,-0.900002l0,-0.099998q0,-1.849991 1.25,-3.199997q1.350006,-1.300003 3.199997,-1.300003l3.350006,0l0,9.050003m0,-20.35l-3.350006,0q-1.849991,0 -3.199997,-1.400024q-1.25,-1.250006 -1.25,-3.200008q0,-1.799994 1.25,-3.199989q1.350006,-1.249994 3.199997,-1.249994l3.350006,0l0,9.050016m-5,-10.250019l-7.25,0q-1.850006,0 -3.199997,-1.400007q-1.25,-1.25 -1.25,-3.200003q0,-1.79999 1.25,-3.199973q1.349991,-1.25 3.199997,-1.25l7.25,0q1.899994,0 3.199997,1.25l0.600006,0.749997q0.75,1.09998 0.75,2.449976q0,1.4 -0.650009,2.4l-0.699997,0.800003q-1.300003,1.400007 -3.199997,1.400007m3.199997,12.700029q1.350006,1.349991 1.350006,3.199989q0,1.100014 -0.449997,2l-0.900009,1.300011q-1.300003,1.349991 -3.199997,1.349991l-7.25,0q-1.850006,0 -3.199997,-1.349991q-1,-1 -1.199997,-2.300011l-0.050003,-0.899986l0,-0.100014q0,-1.849998 1.25,-3.199989q1.349991,-1.300011 3.199997,-1.300011l7.25,0q1.899994,0 3.199997,1.300011m-18.199997,-13.700029q-1.25,1.349993 -3.199997,1.349993l-7.25,0q-1.800003,0 -3.199997,-1.349993q-1.25,-1.299997 -1.25,-3.20001q0,-1.849979 1.25,-3.199984q1.399994,-1.300002 3.199997,-1.300002l7.25,0q1.949997,0 3.199997,1.300002q1.350006,1.350002 1.350006,3.199984q0,1.900013 -1.350006,3.20001m-1.899994,2.200003l7.25,0q1.949997,0 3.199997,1.249994q1.349991,1.399996 1.349991,3.199989q0,1.950006 -1.349991,3.200008q-1.25,1.400024 -3.199997,1.400024l-7.25,0q-1.800003,0 -3.199997,-1.400024q-1.25,-1.250004 -1.25,-3.200008q0,-1.799994 1.25,-3.199989q1.399994,-1.249994 3.199997,-1.249994m-19.449997,-0.85001l-7.300003,0q-1.800003,0 -3.149994,-1.349993q-1.300003,-1.299997 -1.300003,-3.20001q0,-1.849979 1.300003,-3.199984q1.349991,-1.300002 3.149994,-1.300002l7.300003,0q1.649994,0 2.800003,1l0.349991,0.300002q1.400009,1.350002 1.400009,3.199984q0,1.900013 -1.400009,3.20001l-0.349991,0.349993q-1.150009,1 -2.800003,1m1.449997,0.85001l7.25,0q1.949997,0 3.199997,1.249994q1.350006,1.399996 1.350006,3.199989q0,1.950006 -1.350006,3.200008q-1.25,1.400024 -3.199997,1.400024l-7.25,0q-1.800003,0 -3.199997,-1.400024q-1.25,-1.250004 -1.25,-3.200008q0,-1.799994 1.25,-3.199989q1.399994,-1.249994 3.199997,-1.249994m1.350006,11.30003l0.349991,0.299988l0.949997,1.25l0.450012,1.950012q0,1.899986 -1.400009,3.199997l-0.349991,0.349991q-1.150009,1 -2.800003,1l-7.300003,0q-1.800003,0 -3.149994,-1.349991q-1.300003,-1.300011 -1.300003,-3.199997q0,-1.850014 1.300003,-3.200012q1.349991,-1.299988 3.149994,-1.299988l7.300003,0q1.649994,0 2.800003,1m-4.550003,10.449997l0.849991,-0.650009q1.050003,-0.650002 2.350006,-0.650002l7.25,0q1.399994,0 2.399992,0.650002l0.800005,0.650009q1.350006,1.349991 1.350006,3.199989q0,1.900002 -1.350006,3.200005q-1.25,1.350006 -3.199997,1.350006l-7.25,0q-1.800003,0 -3.199997,-1.350006q-1.25,-1.300003 -1.25,-3.200005q0,-1.849998 1.25,-3.199989m21.199997,-1.300011l7.25,0q1.399994,0 2.399994,0.650002q0.449997,0.25 0.800003,0.650009q1.349991,1.349991 1.349991,3.199989q0,1.900002 -1.349991,3.200005q-1.25,1.350006 -3.199997,1.350006l-7.25,0q-1.800003,0 -3.199997,-1.350006q-1.25,-1.300003 -1.25,-3.200005q0,-1.849998 1.25,-3.199989q0.399994,-0.400009 0.849991,-0.650009q1.050003,-0.650002 2.350006,-0.650002" fill="#494949"/>
   <path id="svg_43" d="m55.748505,2.751036l-5.100006,0l-13.349991,0l-4.800003,0l-13,0l-4.949997,0l-13,0l0,7.050012l0,2.449988l0,9.049996l0,1.5l0,7.000004l0,2.950012l0,9.050011l0,1.649994l0,7.049995l0,2.25l0,8.500004l3.550003,0l6.300003,0l11.599991,0l6.550003,0l11.649994,0l6.550003,0l11.449997,0l3,0l0,-10.049999l0,-9.050003l0,-11.300001l0,-9.050018l0,-11.199986l0,-7.850011l-6.449997,0m8.25,-2.750002l0,64.000013l-63.999997,0l0,-64.000013l9.749997,0l0.650009,0l53.599991,0" fill="#2E2E2E"/>
   <path id="svg_44" d="m10.098511,2.751036q-6.699997,0.200001 -7,7.850013l0,0.549988l0,41.800017q0,5.499996 3.199997,7.400005q1.550003,0.849991 3.800003,0.899994l-9.700001,0l0,-58.500015l9.700001,0m51.199997,7.850011q-0.200012,-6.850009 -5.550003,-7.650012l-0.949997,-0.200001l9.199997,0l0,58.500016l-9.5,0q5.800003,-0.149994 6.699997,-6.100002l0.100006,-2.199997l0,-41.800017l0,-0.549988" fill-opacity="0.6" fill="#2E2E2E"/>
  </g>
 </g>
</svg>